<?xml version="1.0" encoding="UTF-8" standalone="no"?>
<!-- Created with Inkscape (http://www.inkscape.org/) -->

<svg
   xmlns:dc="http://purl.org/dc/elements/1.1/"
   xmlns:cc="http://creativecommons.org/ns#"
   xmlns:rdf="http://www.w3.org/1999/02/22-rdf-syntax-ns#"
   xmlns:svg="http://www.w3.org/2000/svg"
   xmlns="http://www.w3.org/2000/svg"
   xmlns:sodipodi="http://sodipodi.sourceforge.net/DTD/sodipodi-0.dtd"
   xmlns:inkscape="http://www.inkscape.org/namespaces/inkscape"
   id="svg2985"
   version="1.1"
   inkscape:version="0.48.4 r9939"
   width="1525.9729"
   height="222.01059"
   sodipodi:docname="Logo_svg.svg">
  <metadata
     id="metadata2991">
    <rdf:RDF>
      <cc:Work
         rdf:about="">
        <dc:format>image/svg+xml</dc:format>
        <dc:type
           rdf:resource="http://purl.org/dc/dcmitype/StillImage" />
        <dc:title />
      </cc:Work>
    </rdf:RDF>
  </metadata>
  <defs
     id="defs2989" />
  <sodipodi:namedview
     pagecolor="#ffffff"
     bordercolor="#666666"
     borderopacity="1"
     objecttolerance="10"
     gridtolerance="10"
     guidetolerance="10"
     inkscape:pageopacity="0"
     inkscape:pageshadow="2"
     inkscape:window-width="1366"
     inkscape:window-height="705"
     id="namedview2987"
     showgrid="false"
     inkscape:zoom="0.50000001"
     inkscape:cx="660.66636"
     inkscape:cy="120.42345"
     inkscape:window-x="-8"
     inkscape:window-y="-8"
     inkscape:window-maximized="1"
     inkscape:current-layer="svg2985"
     fit-margin-top="1"
     fit-margin-left="1"
     fit-margin-right="1"
     fit-margin-bottom="1"
     showguides="true"
     inkscape:guide-bbox="true" />
  <g
     id="g3417"
     style="fill:#cc002b;fill-opacity:1">
    <g
       id="g3369"
       style="fill:#cc002b;fill-opacity:1">
      <g
         transform="translate(-38.725647,23.965972)"
         style="font-size:100px;font-style:normal;font-variant:normal;font-weight:normal;font-stretch:normal;text-align:start;line-height:125%;letter-spacing:0px;word-spacing:0px;writing-mode:lr-tb;text-anchor:start;fill:#cc002b;fill-opacity:1;stroke:none;font-family:Microsoft JhengHei;-inkscape-font-specification:Microsoft JhengHei"
         id="text3167">
        <path
           d="m 644.85211,76.545097 -11.08398,0 0,12.304688 -25.39063,0 0,28.222655 c -6e-5,2.79948 -0.69992,4.78516 -2.09961,5.95703 -1.39979,1.17187 -2.91346,1.81478 -4.54101,1.92871 -1.62766,0.11393 -4.42713,0.1709 -8.39844,0.1709 l -2.09961,-5.27344 c 1.33459,0.0977 2.94592,0.14649 4.83398,0.14649 3.22261,0 5.19201,-0.13835 5.90821,-0.41504 0.71609,-0.27669 1.07416,-0.85449 1.07422,-1.7334 l 0,-29.003905 -22.90039,0 0,-4.785156 22.90039,0 0,-7.519532 -31.20118,0 c -0.0326,22.233095 -3.12501,38.460293 -9.27734,48.681643 l -4.49219,-3.17383 c 5.66405,-9.92838 8.49608,-23.323547 8.4961,-40.185547 l 0,-36.132813 35.5957,0 c -0.74875,-1.9856 -1.88807,-4.085208 -3.41797,-6.298828 l 4.88281,-2.197265 c 2.08328,3.483152 3.53185,6.31518 4.34571,8.496093 l 35.49804,0 0,5.126954 -35.10742,0 0,8.59375 25.39063,0 0,12.109375 11.08398,0 z m -41.79687,-4.980468 0,-7.128907 -22.90039,0 0,-4.980468 22.90039,0 0,-8.59375 -31.20118,0 0,20.703125 z m 25.58593,0 0,-7.128907 -20.26367,0 0,7.128907 z m 0,12.5 0,-7.519532 -20.26367,0 0,7.519532 z m -33.05664,15.673828 -3.32031,4.101563 c -5.56644,-3.74347 -10.66084,-6.477843 -15.2832,-8.203126 l 3.17383,-4.003906 c 5.53382,2.050808 10.67704,4.752628 15.42968,8.105469 z m 41.35743,-3.808594 c -5.59904,3.222677 -11.86531,5.957047 -18.79883,8.203127 l -2.68555,-4.394533 c 6.73821,-2.246071 12.93938,-4.882788 18.60352,-7.910157 z m 3.22265,23.730467 -3.22265,4.10156 c -6.41284,-4.8177 -13.54174,-9.11457 -21.38672,-12.89062 l 2.68554,-4.19922 c 8.1054,3.8086 15.41333,8.13803 21.92383,12.98828 z m -43.21289,-8.49609 c -7.87764,4.88281 -15.1042,8.87044 -21.67969,11.96289 l -2.58789,-4.39453 c 7.06378,-3.28776 14.16012,-7.30794 21.28907,-12.06055 z"
           style="line-height:125%;font-family:Microsoft JhengHei;-inkscape-font-specification:Microsoft JhengHei;fill:#cc002b;fill-opacity:1"
           id="path3187"
           inkscape:connector-curvature="0" />
        <path
           d="m 741.67828,72.83416 c -0.35816,10.612016 -1.26962,20.255561 -2.73437,28.93066 -1.46493,8.67514 -2.88095,14.21713 -4.24805,16.62598 -1.36727,2.40885 -3.10067,4.19922 -5.20019,5.37109 -2.09969,1.17187 -6.45353,1.75781 -13.06153,1.75782 -2.92975,-1e-5 -6.28261,-0.13022 -10.05859,-0.39063 l -1.31836,-5.66406 c 4.39447,0.58594 8.62624,0.87891 12.69531,0.87891 3.61321,0 6.24993,-0.1709 7.91016,-0.5127 1.66008,-0.3418 3.09237,-1.49739 4.29687,-3.4668 1.20435,-1.96939 2.47388,-6.74641 3.8086,-14.33105 1.33455,-7.584611 2.13207,-15.511036 2.39258,-23.779298 l -22.9004,0 c 3.80853,-12.206978 6.44525,-23.144467 7.91016,-32.8125 l -32.22656,0 c 0.71611,32.910198 -8.38219,59.651708 -27.29492,80.224608 l -4.10157,-3.80859 c 18.19659,-19.0104 26.87172,-44.482382 26.02539,-76.416018 l -20.01953,0 0,-5.371094 64.01368,0 c -1.17196,9.472727 -3.58081,20.39394 -7.22657,32.763672 z"
           style="line-height:125%;font-family:Microsoft JhengHei;-inkscape-font-specification:Microsoft JhengHei;fill:#cc002b;fill-opacity:1"
           id="path3189"
           inkscape:connector-curvature="0" />
        <path
           d="m 845.24274,57.843925 -2.68555,4.492188 -6.5918,-2.490234 0,58.300781 c -8e-5,1.85547 -0.56161,3.50749 -1.68457,4.95605 -1.12313,1.44857 -3.63777,2.17285 -7.54394,2.17286 -1.53003,-1e-5 -3.4506,-0.0488 -5.76172,-0.14649 l -1.51367,-5.37109 c 3.51555,0.26041 6.51034,0.39062 8.98437,0.39062 1.75773,0 2.63664,-0.86263 2.63672,-2.58789 l 0,-54.10156 -27.00195,0 0,60.5957 -5.0293,0 0,-60.5957 -27.58789,0 0,61.57227 -4.88281,0 0,-65.185551 c -2.37632,0.911517 -4.18296,1.578834 -5.41992,2.001953 l -3.07618,-4.199219 c 9.21223,-3.124934 17.00844,-6.917248 23.38868,-11.376953 l 4.29687,2.783203 c -4.55732,3.580797 -9.96096,6.738345 -16.21094,9.472656 l 29.49219,0 0,-13.476562 -37.89062,0 0,-4.882813 80.81054,0 0,4.882813 -37.89062,0 0,13.476562 29.10156,0 C 826.96467,55.663 822.06558,52.79842 818.48492,49.933769 l 3.75977,-3.466797 c 5.43612,4.231841 13.10213,8.024154 22.99805,11.376953 z m -16.89453,27.587891 -3.4668,3.613281 c -1.59513,-2.343716 -3.80867,-4.882776 -6.64063,-7.617187 -1.79043,2.669307 -4.37831,5.582715 -7.76367,8.740234 l -3.90625,-3.125 c 3.35281,-2.799443 6.08718,-5.631472 8.20313,-8.496094 -2.24616,-2.018185 -4.37832,-3.710892 -6.39649,-5.078125 l 2.68555,-3.613281 c 1.69265,0.976612 3.79225,2.53911 6.29883,4.6875 1.39967,-2.408806 2.60409,-4.899038 3.61328,-7.470703 l 4.39453,1.367188 c -1.53002,3.678433 -2.99486,6.754602 -4.39453,9.228515 2.27857,1.953166 4.73625,4.541054 7.37305,7.763672 z m -32.2754,-0.195312 -3.02734,3.710937 c -2.66931,-2.962205 -4.80147,-5.159469 -6.39648,-6.591797 -2.57165,3.287795 -4.96423,5.826855 -7.17774,7.617188 l -3.71094,-3.222657 c 2.50649,-2.018193 4.91534,-4.557253 7.22657,-7.617187 -2.92972,-2.669227 -5.53388,-4.768835 -7.8125,-6.298828 l 2.49023,-3.369141 c 2.08331,1.269581 4.75257,3.190152 8.00781,5.761719 1.62757,-2.636671 2.92965,-5.289663 3.90625,-7.958984 l 4.29688,1.464843 c -0.94405,2.864632 -2.474,6.071009 -4.58984,9.619141 2.57157,2.278685 4.83394,4.573605 6.7871,6.884766 z m 0,24.804686 -3.51562,3.41797 c -2.31124,-3.02733 -4.54105,-5.50129 -6.68945,-7.42188 -2.37634,3.38543 -4.94795,6.21746 -7.71485,8.4961 l -3.61328,-3.36914 c 3.5156,-3.12499 6.18487,-5.92447 8.00781,-8.39844 -1.75784,-1.72524 -4.49221,-3.889952 -8.20312,-6.49414 l 2.73437,-3.613281 8.00782,6.201171 c 1.4648,-2.57159 2.65295,-5.045546 3.56445,-7.421875 l 4.49219,1.708985 c -1.43234,3.5482 -2.96228,6.510437 -4.58985,8.88672 3.05986,2.9297 5.56637,5.59897 7.51953,8.00781 z m 32.66602,0.19531 -3.56445,3.41797 c -1.79044,-2.40884 -4.23184,-5.04556 -7.32422,-7.91015 -2.60423,3.45053 -5.06191,6.25 -7.37305,8.39843 l -3.51562,-3.36914 c 2.57155,-2.24608 5.07806,-5.09438 7.51953,-8.54492 -1.43236,-1.39972 -3.59707,-3.287738 -6.49414,-5.664061 l 3.07617,-3.222657 6.00586,5.029297 c 1.20436,-1.822893 2.37623,-4.036432 3.51562,-6.640625 l 4.39453,1.416016 c -1.2045,3.027367 -2.66934,5.891948 -4.39453,8.59375 2.96217,2.70184 5.68027,5.53387 8.1543,8.49609 z"
           style="line-height:125%;font-family:Microsoft JhengHei;-inkscape-font-specification:Microsoft JhengHei;fill:#cc002b;fill-opacity:1"
           id="path3191"
           inkscape:connector-curvature="0" />
        <path
           d="m 944.94977,121.174 -3.56446,4.49219 c -10.74226,-6.86849 -19.32787,-14.81933 -25.75683,-23.85254 -6.4291,-9.033174 -11.22239,-20.222941 -14.37988,-33.569334 -4.03651,23.404976 -17.65954,42.447924 -40.86914,57.128904 l -3.41797,-4.54101 c 5.89191,-3.74349 11.57224,-8.23567 17.04101,-13.47657 5.46872,-5.24086 9.99346,-10.766574 13.57422,-16.577144 3.58069,-5.810512 6.34761,-13.793902 8.30078,-23.950196 l -37.10937,0 0,-5.175781 38.08593,0 c 1.04162,-8.203058 1.61129,-16.308519 1.70899,-24.316406 l 5.71289,0 c -0.32557,8.724032 -0.96034,16.829493 -1.9043,24.316406 l 40.9668,0 0,5.175781 -37.06055,0 c 3.58067,14.290404 8.51231,25.480171 14.79492,33.56934 6.28248,8.0892 14.24146,15.01465 23.87696,20.77636 z"
           style="line-height:125%;font-family:Microsoft JhengHei;-inkscape-font-specification:Microsoft JhengHei;fill:#cc002b;fill-opacity:1"
           id="path3193"
           inkscape:connector-curvature="0" />
        <path
           d="m 1013.5533,53.058769 -3.2715,2.88086 c -2.5066,-2.408788 -5.3386,-4.703708 -8.4961,-6.884766 -3.2878,2.246162 -7.09639,4.378322 -11.42578,6.396484 l -2.19726,-4.003906 c 2.9622,-1.269461 6.26623,-3.0761 9.91211,-5.419922 -2.31124,-2.050705 -4.7201,-3.87362 -7.22656,-5.46875 l 3.32031,-2.929687 c 3.9713,2.897215 6.51038,4.80151 7.61718,5.71289 3.0273,-2.408775 5.3548,-4.63859 6.9824,-6.689453 l 3.8086,2.001953 c -1.2696,1.855549 -3.6784,4.394609 -7.2265,7.617188 1.2043,0.683667 3.9387,2.946034 8.2031,6.787109 z m 28.6133,41.992188 -5.2246,0 0,-12.597657 -72.26567,0 0,12.597657 -5.0293,0 0,-17.285157 5.22461,0 -0.39062,-36.035156 c 6.54295,-0.781171 12.77666,-2.376221 18.70117,-4.785156 l 2.29492,4.003906 c -4.55732,2.050859 -9.89586,3.613357 -16.01562,4.6875 l 0,7.128906 16.11328,0 0,4.589844 -16.01563,0 0.0977,7.714844 15.82031,0 0,4.6875 -15.625,0 0.0977,8.007812 61.32815,0 0.098,-8.007812 -15.8203,0 0,-4.6875 15.918,0 0.098,-7.714844 -16.0157,0 0,-4.589844 16.211,0 0.1953,-7.226562 -17.2852,0 0,-4.589844 22.3633,0 -0.8789,36.816406 6.0059,0 z m -28.3203,-22.900391 -3.2715,3.222656 c -0.9115,-0.911412 -3.8412,-3.352816 -8.7891,-7.324218 -4.98051,3.418017 -9.01696,5.778041 -12.10937,7.080078 l -2.49023,-4.101563 c 1.79032,-0.716096 5.41988,-2.701771 10.88867,-5.957031 -1.13937,-1.041611 -2.55539,-2.115828 -4.24805,-3.222656 -1.69275,-1.106712 -2.91345,-1.936789 -3.66211,-2.490235 l 2.97852,-3.125 c 4.85021,3.352925 7.73107,5.387429 8.64257,6.103516 3.7109,-2.897075 5.8756,-4.817646 6.4941,-5.761719 l 3.7598,2.587891 c -0.586,0.846414 -2.7832,2.913469 -6.5918,6.201172 1.4323,1.009168 4.2317,3.271536 8.3985,6.787109 z m 30.4199,36.376954 -40.8203,0 0,10.00976 c -1e-4,1.92058 -0.6104,3.4017 -1.8311,4.44336 -1.2207,1.04167 -2.67745,1.5625 -4.37011,1.5625 l -11.86523,0.0977 -1.70899,-4.98047 c 1.92054,0.0977 3.84111,0.14649 5.76172,0.14649 4.5247,0 7.16141,-0.19532 7.91016,-0.58594 0.74865,-0.39063 1.123,-1.18815 1.12304,-2.39258 l 0,-8.30078 -41.01562,0 0,-4.6875 41.01562,0 0,-4.003907 c 6.31501,-2.213519 11.71871,-4.378231 16.21091,-6.494141 l -40.23434,0 0,-4.6875 50.92774,0 0,4.6875 c -6.8035,3.450544 -14.1114,6.656921 -21.9238,9.619138 l 0,0.87891 40.8203,0 z"
           style="line-height:125%;font-family:Microsoft JhengHei;-inkscape-font-specification:Microsoft JhengHei;fill:#cc002b;fill-opacity:1"
           id="path3195"
           inkscape:connector-curvature="0" />
        <path
           d="m 1144.8521,75.129082 -4.2969,3.320312 c -2.2461,-3.255163 -5.0456,-6.624301 -8.3984,-10.107422 -20.6055,4.264371 -44.6778,6.901087 -72.2168,7.910157 l -1.4648,-4.785157 c 14.8111,-11.523377 25.1464,-22.900319 31.0058,-34.130859 l 5.3711,1.806641 c -5.4688,9.863352 -14.4694,20.328836 -27.0019,31.396484 21.9075,-0.748648 41.8782,-3.043567 59.9121,-6.884766 -4.0366,-4.459574 -9.4077,-9.488866 -16.1133,-15.08789 l 4.5898,-3.417969 c 11.2955,9.895898 20.8333,19.889378 28.6133,29.980469 z m -9.5703,50.244138 -5.5176,0 0,-6.20117 -57.7148,0 0,6.05469 -5.4688,0 0,-39.160158 68.7012,0 z m -5.5176,-11.52344 0,-22.412105 -57.7148,0 0,22.412105 z"
           style="line-height:125%;font-family:Microsoft JhengHei;-inkscape-font-specification:Microsoft JhengHei;fill:#cc002b;fill-opacity:1"
           id="path3197"
           inkscape:connector-curvature="0" />
        <path
           d="m 1220.3404,48.273613 -22.0703,0 0,-4.199219 9.375,0 c -0.3256,-1.52987 -1.1231,-3.369061 -2.3926,-5.517578 l 4.1016,-1.708984 c 1.0741,1.953206 2.1483,4.362058 3.2226,7.226562 l 7.7637,0 z m -22.2656,20.654297 -3.8086,1.416015 c -0.1628,-0.781199 -0.4721,-1.546172 -0.9278,-2.294921 -5.3385,1.204477 -10.7585,2.132211 -16.2597,2.783203 l -1.6114,-3.173828 c 5.1758,-5.143172 8.903,-9.147074 11.1817,-12.011719 -4.2969,0.455793 -7.1615,0.716209 -8.5938,0.78125 l -1.416,-3.564453 c 4.9154,-5.468678 8.6588,-10.807214 11.2305,-16.015625 l 4.1016,2.099609 c -1.9532,3.645911 -4.948,7.942782 -8.9844,12.890625 2.832,-0.227796 5.2571,-0.553317 7.2754,-0.976562 0.651,-0.943941 1.6113,-2.473887 2.8808,-4.589844 l 4.0039,2.099609 c -3.0599,5.273504 -7.6497,11.035217 -13.7695,17.285156 2.6367,-0.325466 5.4362,-0.830022 8.3984,-1.513671 -0.1628,-0.911402 -0.5697,-1.871687 -1.2207,-2.88086 l 3.8086,-1.513672 c 1.1393,1.88808 2.3763,4.947972 3.711,9.179688 z m 45.6054,0.927734 -4.1015,1.416016 c -0.228,-1.009065 -0.5698,-2.018179 -1.0254,-3.027344 -6.6407,1.204478 -12.2397,2.067107 -16.7969,2.587891 l -1.2695,-3.369141 c 3.483,-2.994736 7.2427,-6.803326 11.2793,-11.425781 l -9.8145,0.634765 -1.0742,-3.125 c 6.1523,-6.966072 10.2213,-12.402264 12.207,-16.308593 l 4.3946,1.80664 c -2.409,4.10164 -5.713,8.463615 -9.9121,13.085938 3.3202,-0.227797 6.022,-0.585869 8.1054,-1.074219 1.5624,-2.311127 2.6204,-3.987557 3.1739,-5.029297 l 4.1015,2.441406 c -2.6693,4.459703 -7.4057,10.188864 -14.209,17.1875 1.9205,-0.06505 4.5898,-0.504502 8.0078,-1.318359 -0.293,-0.911402 -0.7487,-1.839135 -1.3671,-2.783203 l 4.1015,-1.513672 c 1.6601,3.352921 3.0598,6.624402 4.1992,9.814453 z m -67.5293,-20.117187 -3.3691,3.808593 c -3.4505,-3.873627 -7.959,-7.877529 -13.5254,-12.011718 l 3.3203,-3.808594 c 4.2318,2.929767 8.7565,6.933669 13.5742,12.011719 z m 41.4063,6.689453 -16.9922,0 0,-4.052735 16.9922,0 z m 0,8.300781 -16.9922,0 0,-4.101562 16.9922,0 z m -43.6035,9.130859 -3.0762,3.90625 c -3.125,-3.613235 -7.6009,-7.584585 -13.4277,-11.914062 l 3.3203,-4.003906 c 5.5338,4.329481 9.9283,8.333383 13.1836,12.011718 z m 43.7988,9.814454 -17.1875,0 0,-14.941407 17.1875,0 z m -4.1016,-4.199219 0,-6.542969 -8.6914,0 0,6.542969 z m -16.6992,2.685547 -3.9062,1.074218 c -0.4884,-3.222616 -1.2533,-6.445269 -2.295,-9.667968 l 3.8086,-1.220703 c 1.0742,2.929732 1.8717,6.201213 2.3926,9.814453 z m -15.4785,-8.007813 c -0.944,3.906292 -2.0834,7.503294 -3.418,10.791016 l -4.1015,-1.416016 c 1.595,-3.548137 2.7669,-7.080034 3.5156,-10.595703 z m 44.7754,0 c -0.1628,3.190147 -0.8953,7.015013 -2.1973,11.47461 l -4.1015,-0.976563 c 1.0416,-3.092409 1.8391,-6.852171 2.3925,-11.279297 z m 17.9199,9.521485 -3.9062,1.074218 c -1.5626,-4.882772 -2.767,-8.284461 -3.6133,-10.205078 l 3.8086,-1.074219 c 1.5298,2.799523 2.7668,6.201213 3.7109,10.205079 z m -8.9844,0.585937 -4.3457,0.78125 c 0.1953,-3.320274 -0.2279,-6.884724 -1.2695,-10.693359 l 3.9063,-0.683594 c 0.9439,3.54822 1.5135,7.080117 1.7089,10.595703 z m -46.3378,0 -3.7598,0.585938 c -0.3581,-4.264284 -0.8952,-7.763629 -1.6113,-10.498047 l 4.0039,-0.585938 c 0.9114,5.240927 1.3671,8.740272 1.3672,10.498047 z m 51.3183,24.707029 -1.3183,9.27735 c -0.2606,1.88802 -1.0988,3.52376 -2.5147,4.90722 -1.4161,1.38346 -3.3123,2.07519 -5.6885,2.0752 l -22.3633,0 -1.9043,-4.6875 24.17,0 c 1.8554,0 2.9621,-1.02539 3.3203,-3.07617 l 0.6836,-4.19922 -56.5918,0 5.3222,-14.599612 48.2911,0 0,-5.810547 -53.418,0 0,-4.199219 58.4961,0 0,14.306638 -49.3652,0 -2.1973,6.00586 z m -65.4785,-15.82031 c -3.7761,11.52345 -8.252,22.1517 -13.4277,31.88477 l -4.0039,-2.97852 c 4.9153,-9.30989 9.3587,-19.90558 13.33,-31.78711 z"
           style="line-height:125%;font-family:Microsoft JhengHei;-inkscape-font-specification:Microsoft JhengHei;fill:#cc002b;fill-opacity:1"
           id="path3199"
           inkscape:connector-curvature="0" />
        <path
           d="m 1340.067,117.56072 c -10e-5,3.28776 -1.1557,5.40365 -3.4668,6.34766 -1.8556,0.52083 -4.24,0.82193 -7.1534,0.90332 -2.9134,0.0814 -6.7465,0.12206 -11.499,0.12207 l -2.0996,-5.27344 c 1.7578,0.13021 7.2265,0.19531 16.4063,0.19531 1.7902,0 2.6854,-0.86262 2.6855,-2.58789 l 0,-72.216793 -67.2852,0 0,80.078123 -5.0781,0 0,-85.058592 77.4903,0 z m -13.5254,-55.126951 -50.3907,0 0,-5.078125 50.3907,0 z m -5.6641,42.236331 -39.1113,0 0,-29.638675 39.1113,0 z m -5.4199,-5.322268 0,-19.189453 -28.2715,0 0,19.189453 z"
           style="line-height:125%;font-family:Microsoft JhengHei;-inkscape-font-specification:Microsoft JhengHei;fill:#cc002b;fill-opacity:1"
           id="path3201"
           inkscape:connector-curvature="0" />
        <path
           d="m 1413.5533,53.058769 -3.2715,2.88086 c -2.5066,-2.408788 -5.3386,-4.703708 -8.4961,-6.884766 -3.2878,2.246162 -7.0964,4.378322 -11.4258,6.396484 l -2.1972,-4.003906 c 2.9622,-1.269461 6.2662,-3.0761 9.9121,-5.419922 -2.3113,-2.050705 -4.7201,-3.87362 -7.2266,-5.46875 l 3.3203,-2.929687 c 3.9713,2.897215 6.5104,4.80151 7.6172,5.71289 3.0273,-2.408775 5.3548,-4.63859 6.9824,-6.689453 l 3.8086,2.001953 c -1.2696,1.855549 -3.6784,4.394609 -7.2265,7.617188 1.2043,0.683667 3.9387,2.946034 8.2031,6.787109 z m 28.6133,41.992188 -5.2246,0 0,-12.597657 -72.2657,0 0,12.597657 -5.0293,0 0,-17.285157 5.2246,0 -0.3906,-36.035156 c 6.543,-0.781171 12.7767,-2.376221 18.7012,-4.785156 l 2.2949,4.003906 c -4.5573,2.050859 -9.8958,3.613357 -16.0156,4.6875 l 0,7.128906 16.1133,0 0,4.589844 -16.0157,0 0.098,7.714844 15.8203,0 0,4.6875 -15.625,0 0.098,8.007812 61.3281,0 0.098,-8.007812 -15.8203,0 0,-4.6875 15.918,0 0.098,-7.714844 -16.0157,0 0,-4.589844 16.211,0 0.1953,-7.226562 -17.2852,0 0,-4.589844 22.3633,0 -0.8789,36.816406 6.0059,0 z m -28.3203,-22.900391 -3.2715,3.222656 c -0.9115,-0.911412 -3.8412,-3.352816 -8.7891,-7.324218 -4.9805,3.418017 -9.017,5.778041 -12.1094,7.080078 l -2.4902,-4.101563 c 1.7903,-0.716096 5.4199,-2.701771 10.8887,-5.957031 -1.1394,-1.041611 -2.5554,-2.115828 -4.2481,-3.222656 -1.6927,-1.106712 -2.9134,-1.936789 -3.6621,-2.490235 l 2.9785,-3.125 c 4.8502,3.352925 7.7311,5.387429 8.6426,6.103516 3.7109,-2.897075 5.8756,-4.817646 6.4941,-5.761719 l 3.7598,2.587891 c -0.586,0.846414 -2.7832,2.913469 -6.5918,6.201172 1.4323,1.009168 4.2317,3.271536 8.3985,6.787109 z m 30.4199,36.376954 -40.8203,0 0,10.00976 c -10e-5,1.92058 -0.6104,3.4017 -1.8311,4.44336 -1.2207,1.04167 -2.6774,1.5625 -4.3701,1.5625 l -11.8652,0.0977 -1.709,-4.98047 c 1.9205,0.0977 3.8411,0.14649 5.7617,0.14649 4.5247,0 7.1614,-0.19532 7.9101,-0.58594 0.7487,-0.39063 1.123,-1.18815 1.1231,-2.39258 l 0,-8.30078 -41.0156,0 0,-4.6875 41.0156,0 0,-4.003907 c 6.315,-2.213519 11.7187,-4.378231 16.2109,-6.494141 l -40.2343,0 0,-4.6875 50.9277,0 0,4.6875 c -6.8035,3.450544 -14.1114,6.656921 -21.9238,9.619138 l 0,0.87891 40.8203,0 z"
           style="line-height:125%;font-family:Microsoft JhengHei;-inkscape-font-specification:Microsoft JhengHei;fill:#cc002b;fill-opacity:1"
           id="path3203"
           inkscape:connector-curvature="0" />
        <path
           d="m 1545.3404,57.257988 -2.1973,4.785156 c -10.8073,-2.604106 -19.4987,-5.566342 -26.0742,-8.886719 l 0,3.90625 -32.3242,0 0,-3.808593 c -7.0638,3.678448 -15.4623,6.917377 -25.1953,9.716797 l -2.6856,-4.541016 c 17.9037,-4.62233 32.2754,-11.783781 43.1153,-21.484375 l 5.7617,1.708984 c -0.7162,0.716227 -1.237,1.220784 -1.5625,1.513672 10.4817,7.877676 24.2024,13.574285 41.1621,17.089844 z m -30.6641,-5.029297 c -5.0782,-2.636648 -9.847,-5.598885 -14.3066,-8.886719 -4.362,3.352938 -8.8379,6.315175 -13.4277,8.886719 z m 20.8008,35.400391 -69.4336,0 0,-24.560547 69.4336,0 z m -5.1269,-4.785157 0,-14.990234 -26.9043,0 0,14.990234 z m -7.5684,-11.18164 c -2.3113,3.418014 -4.8178,6.347698 -7.5195,8.789062 l -3.9063,-2.783203 c 2.7018,-2.115841 5.1106,-4.687453 7.2266,-7.714844 z m -24.6094,11.18164 0,-14.990234 -27.0019,0 0,14.990234 z m -8.3008,-5.078125 -3.7109,2.783204 c -2.2136,-2.962198 -4.7201,-5.794226 -7.5195,-8.496094 l 3.8086,-2.490235 c 2.7669,2.21359 5.2408,4.947963 7.4218,8.203125 z m 41.211,47.26563 -5.0293,0 0,-4.19922 -50.1953,0 0,4.19922 -5.2735,0 0,-31.591801 60.4981,0 z m -5.0293,-20.26368 0,-6.494137 -50.1953,0 0,6.494137 z m 0,11.2793 0,-6.68945 -50.1953,0 0,6.68945 z"
           style="line-height:125%;font-family:Microsoft JhengHei;-inkscape-font-specification:Microsoft JhengHei;fill:#cc002b;fill-opacity:1"
           id="path3205"
           inkscape:connector-curvature="0" />
      </g>
      <g
         transform="translate(-38.725647,23.965972)"
         style="font-size:60px;font-style:normal;font-variant:normal;font-weight:normal;font-stretch:normal;text-align:start;line-height:125%;letter-spacing:0px;word-spacing:0px;writing-mode:lr-tb;text-anchor:start;fill:#cc002b;fill-opacity:1;stroke:none;font-family:Lucida Sans Unicode;-inkscape-font-specification:Lucida Sans Unicode"
         id="text3175">
        <path
           d="m 571.92609,194.00995 c -3.92093,2.02311 -8.1999,3.03467 -12.83692,3.03467 -6.17677,0 -10.94809,-1.80827 -14.31396,-5.42481 -3.36589,-3.61653 -5.04883,-8.75487 -5.04883,-15.41504 0,-6.64222 1.71427,-11.78504 5.14282,-15.42846 3.42854,-3.64336 8.26699,-5.46505 14.51538,-5.46509 3.5449,4e-5 7.70749,0.58191 12.4878,1.7456 l 0,5.29053 c -5.44274,-1.87985 -9.64114,-2.81979 -12.59522,-2.81982 -4.3148,3e-5 -7.65382,1.45918 -10.01709,4.37744 -2.36329,2.91832 -3.54493,7.03616 -3.54492,12.35351 -10e-6,5.08465 1.2622,9.08611 3.78662,12.0044 2.5244,2.9183 5.9798,4.37744 10.36621,4.37744 3.74184,0 7.7612,-1.15478 12.05811,-3.46436 z"
           style="font-size:55px;line-height:125%;font-family:Lucida Sans Unicode;-inkscape-font-specification:Lucida Sans Unicode;fill:#cc002b;fill-opacity:1"
           id="path3208"
           inkscape:connector-curvature="0" />
        <path
           d="m 591.85284,196.72235 c -4.27898,0 -7.66724,-1.36963 -10.16479,-4.10889 -2.49756,-2.73925 -3.74634,-6.45425 -3.74634,-11.14502 0,-4.69073 1.24878,-8.40126 3.74634,-11.13159 2.49755,-2.73027 5.88581,-4.09543 10.16479,-4.09546 4.27895,3e-5 7.66722,1.36519 10.1648,4.09546 2.49753,2.73033 3.74631,6.44086 3.74634,11.13159 -3e-5,4.69077 -1.24881,8.40577 -3.74634,11.14502 -2.49758,2.73926 -5.88585,4.10889 -10.1648,4.10889 z m 0,-3.97461 c 2.63182,1e-5 4.67283,-0.98469 6.12305,-2.9541 1.45017,-1.96939 2.17527,-4.74446 2.17529,-8.3252 -2e-5,-3.58071 -0.72512,-6.35129 -2.17529,-8.31176 -1.45022,-1.96043 -3.49123,-2.94065 -6.12305,-2.94068 -2.63185,3e-5 -4.66838,0.98025 -6.10961,2.94068 -1.44126,1.96047 -2.16188,4.73105 -2.16187,8.31176 -10e-6,3.58074 0.72061,6.35581 2.16187,8.3252 1.44123,1.96941 3.47776,2.95411 6.10961,2.9541 z"
           style="font-size:55px;line-height:125%;font-family:Lucida Sans Unicode;-inkscape-font-specification:Lucida Sans Unicode;fill:#cc002b;fill-opacity:1"
           id="path3210"
           inkscape:connector-curvature="0" />
        <path
           d="m 614.08917,196.05096 0,-29.16503 5.29053,0 0,5.47851 c 2.09471,-4.082 5.13833,-6.12302 9.13086,-6.12305 0.53709,3e-5 1.10105,0.0448 1.69189,0.13428 l 0,4.94141 c -0.9131,-0.30434 -1.71877,-0.45652 -2.41699,-0.45655 -3.348,3e-5 -6.14991,1.98733 -8.40576,5.96192 l 0,19.22851 z"
           style="font-size:55px;line-height:125%;font-family:Lucida Sans Unicode;-inkscape-font-specification:Lucida Sans Unicode;fill:#cc002b;fill-opacity:1"
           id="path3212"
           inkscape:connector-curvature="0" />
        <path
           d="m 636.64777,196.05096 0,-29.16503 5.29052,0 0,5.47851 c 2.79296,-4.082 6.21255,-6.12302 10.25879,-6.12305 2.5423,3e-5 4.56093,0.80122 6.05591,2.40357 1.49493,1.6024 2.2424,3.75531 2.24243,6.45874 l 0,20.94726 -5.29052,0 0,-19.22851 c -3e-5,-2.16632 -0.31782,-3.71051 -0.95337,-4.63257 -0.63561,-0.92201 -1.68744,-1.38303 -3.15552,-1.38306 -3.24058,3e-5 -6.29315,2.12161 -9.15772,6.36475 l 0,18.87939 z"
           style="font-size:55px;line-height:125%;font-family:Lucida Sans Unicode;-inkscape-font-specification:Lucida Sans Unicode;fill:#cc002b;fill-opacity:1"
           id="path3214"
           inkscape:connector-curvature="0" />
        <path
           d="m 692.18488,195.11102 c -3.54495,1.07422 -6.57961,1.61133 -9.10401,1.61133 -4.31479,0 -7.8239,-1.42781 -10.52734,-4.28345 -2.70346,-2.85562 -4.05518,-6.5572 -4.05518,-11.10473 0,-4.42218 1.19507,-8.04767 3.58521,-10.87647 2.39012,-2.82874 5.44717,-4.24313 9.17114,-4.24316 3.527,3e-5 6.25283,1.25776 8.17749,3.77319 1.92462,2.51549 2.88694,6.08279 2.88696,10.70191 l -0.0269,1.61132 -18.396,0 c 0.76985,6.92872 4.16259,10.39307 10.17822,10.39307 2.20213,0 4.90558,-0.59082 8.11036,-1.77246 z m -18.04688,-16.78467 12.86377,0 c -2e-5,-5.42478 -2.02313,-8.13718 -6.06934,-8.1372 -4.06413,2e-5 -6.32894,2.71242 -6.79443,8.1372 z"
           style="font-size:55px;line-height:125%;font-family:Lucida Sans Unicode;-inkscape-font-specification:Lucida Sans Unicode;fill:#cc002b;fill-opacity:1"
           id="path3216"
           inkscape:connector-curvature="0" />
        <path
           d="m 701.42316,196.05096 0,-42.40478 5.29052,0 0,42.40478 z"
           style="font-size:55px;line-height:125%;font-family:Lucida Sans Unicode;-inkscape-font-specification:Lucida Sans Unicode;fill:#cc002b;fill-opacity:1"
           id="path3218"
           inkscape:connector-curvature="0" />
        <path
           d="m 717.32159,196.05096 0,-42.40478 5.29053,0 0,42.40478 z"
           style="font-size:55px;line-height:125%;font-family:Lucida Sans Unicode;-inkscape-font-specification:Lucida Sans Unicode;fill:#cc002b;fill-opacity:1"
           id="path3220"
           inkscape:connector-curvature="0" />
        <path
           d="m 759.91437,196.05096 0,-35.52978 -14.09912,0 0,-4.21631 33.83789,0 0,4.21631 -14.09912,0 0,35.52978 z"
           style="font-size:55px;line-height:125%;font-family:Lucida Sans Unicode;-inkscape-font-specification:Lucida Sans Unicode;fill:#cc002b;fill-opacity:1"
           id="path3222"
           inkscape:connector-curvature="0" />
        <path
           d="m 800.46613,192.34491 c -3.16897,2.91829 -6.22154,4.37744 -9.15772,4.37744 -2.417,0 -4.42221,-0.75643 -6.01562,-2.26929 -1.59343,-1.51285 -2.39014,-3.42406 -2.39014,-5.73364 0,-3.18684 1.33829,-5.63516 4.01489,-7.34497 2.67659,-1.70978 6.52139,-2.56468 11.53443,-2.5647 l 1.23535,0 0,-3.51806 c -2e-5,-3.38377 -1.76353,-5.07566 -5.29053,-5.07569 -2.73927,3e-5 -5.72918,0.8594 -8.96973,2.57813 l 0,-4.37744 c 3.56282,-1.45017 6.91975,-2.17527 10.0708,-2.1753 3.24055,3e-5 5.63068,0.73856 7.17041,2.21558 1.53969,1.47708 2.30955,3.75531 2.30957,6.83472 l 0,13.21289 c -2e-5,3.02572 0.93097,4.53857 2.79297,4.53857 0.23272,0 0.57289,-0.0358 1.02051,-0.10742 l 0.37598,2.92725 c -1.19957,0.57291 -2.52444,0.85937 -3.97461,0.85937 -2.47073,0 -4.04625,-1.45915 -4.72656,-4.37744 z m -0.77881,-2.87354 0,-7.54638 -1.6919,-0.0537 c -2.93621,1e-5 -5.30397,0.54607 -7.10327,1.63818 -1.79932,1.09213 -2.69898,2.54233 -2.69897,4.35059 -10e-6,1.27116 0.44758,2.34538 1.34277,3.22265 0.89517,0.87729 1.98729,1.31592 3.27637,1.31592 2.20213,0 4.49379,-0.97574 6.875,-2.92725 z"
           style="font-size:55px;line-height:125%;font-family:Lucida Sans Unicode;-inkscape-font-specification:Lucida Sans Unicode;fill:#cc002b;fill-opacity:1"
           id="path3224"
           inkscape:connector-curvature="0" />
        <path
           d="m 815.82745,196.05096 0,-29.16503 5.29053,0 0,29.16503 z m 0,-34.45556 0,-5.29053 5.29053,0 0,5.29053 z"
           style="font-size:55px;line-height:125%;font-family:Lucida Sans Unicode;-inkscape-font-specification:Lucida Sans Unicode;fill:#cc002b;fill-opacity:1"
           id="path3226"
           inkscape:connector-curvature="0" />
        <path
           d="m 835.10968,196.05096 -8.35205,-29.16503 5.1831,0 6.39161,22.58544 6.90185,-22.58544 5.29053,0 6.04248,22.58544 7.33154,-22.58544 4.53858,0 -9.50684,29.16503 -5.31738,0 -6.17676,-22.58544 -6.98242,22.58544 z"
           style="font-size:55px;line-height:125%;font-family:Lucida Sans Unicode;-inkscape-font-specification:Lucida Sans Unicode;fill:#cc002b;fill-opacity:1"
           id="path3228"
           inkscape:connector-curvature="0" />
        <path
           d="m 889.19659,192.34491 c -3.16896,2.91829 -6.22153,4.37744 -9.15771,4.37744 -2.417,0 -4.42221,-0.75643 -6.01563,-2.26929 -1.59342,-1.51285 -2.39014,-3.42406 -2.39013,-5.73364 -10e-6,-3.18684 1.33829,-5.63516 4.01489,-7.34497 2.67659,-1.70978 6.52139,-2.56468 11.53442,-2.5647 l 1.23536,0 0,-3.51806 c -2e-5,-3.38377 -1.76353,-5.07566 -5.29053,-5.07569 -2.73927,3e-5 -5.72918,0.8594 -8.96973,2.57813 l 0,-4.37744 c 3.56282,-1.45017 6.91975,-2.17527 10.0708,-2.1753 3.24054,3e-5 5.63068,0.73856 7.17041,2.21558 1.53969,1.47708 2.30955,3.75531 2.30957,6.83472 l 0,13.21289 c -2e-5,3.02572 0.93097,4.53857 2.79297,4.53857 0.23272,0 0.57289,-0.0358 1.02051,-0.10742 l 0.37598,2.92725 c -1.19958,0.57291 -2.52444,0.85937 -3.97461,0.85937 -2.47073,0 -4.04625,-1.45915 -4.72657,-4.37744 z m -0.7788,-2.87354 0,-7.54638 -1.6919,-0.0537 c -2.93621,1e-5 -5.30397,0.54607 -7.10327,1.63818 -1.79933,1.09213 -2.69898,2.54233 -2.69897,4.35059 -10e-6,1.27116 0.44758,2.34538 1.34277,3.22265 0.89517,0.87729 1.98729,1.31592 3.27637,1.31592 2.20213,0 4.49379,-0.97574 6.875,-2.92725 z"
           style="font-size:55px;line-height:125%;font-family:Lucida Sans Unicode;-inkscape-font-specification:Lucida Sans Unicode;fill:#cc002b;fill-opacity:1"
           id="path3230"
           inkscape:connector-curvature="0" />
        <path
           d="m 904.55792,196.05096 0,-29.16503 5.29053,0 0,5.47851 c 2.79296,-4.082 6.21255,-6.12302 10.25879,-6.12305 2.54229,3e-5 4.56093,0.80122 6.05591,2.40357 1.49492,1.6024 2.2424,3.75531 2.24243,6.45874 l 0,20.94726 -5.29053,0 0,-19.22851 c -2e-5,-2.16632 -0.31781,-3.71051 -0.95337,-4.63257 -0.6356,-0.92201 -1.68744,-1.38303 -3.15552,-1.38306 -3.24057,3e-5 -6.29314,2.12161 -9.15771,6.36475 l 0,18.87939 z"
           style="font-size:55px;line-height:125%;font-family:Lucida Sans Unicode;-inkscape-font-specification:Lucida Sans Unicode;fill:#cc002b;fill-opacity:1"
           id="path3232"
           inkscape:connector-curvature="0" />
        <path
           d="m 960.09503,195.11102 c -3.54494,1.07422 -6.57961,1.61133 -9.104,1.61133 -4.31479,0 -7.82391,-1.42781 -10.52735,-4.28345 -2.70345,-2.85562 -4.05517,-6.5572 -4.05517,-11.10473 0,-4.42218 1.19506,-8.04767 3.5852,-10.87647 2.39013,-2.82874 5.44718,-4.24313 9.17115,-4.24316 3.52699,3e-5 6.25282,1.25776 8.17749,3.77319 1.92461,2.51549 2.88693,6.08279 2.88696,10.70191 l -0.0269,1.61132 -18.39599,0 c 0.76985,6.92872 4.16258,10.39307 10.17822,10.39307 2.20213,0 4.90558,-0.59082 8.11035,-1.77246 z m -18.04687,-16.78467 12.86377,0 c -3e-5,-5.42478 -2.02314,-8.13718 -6.06934,-8.1372 -4.06414,2e-5 -6.32895,2.71242 -6.79443,8.1372 z"
           style="font-size:55px;line-height:125%;font-family:Lucida Sans Unicode;-inkscape-font-specification:Lucida Sans Unicode;fill:#cc002b;fill-opacity:1"
           id="path3234"
           inkscape:connector-curvature="0" />
        <path
           d="m 968.25909,195.03046 0,-4.86084 c 3.4554,1.71875 6.46321,2.57813 9.02344,2.57812 1.5218,1e-5 2.784,-0.41178 3.78662,-1.23535 1.00259,-0.82356 1.50389,-1.85302 1.50391,-3.08838 -2e-5,-1.80826 -1.40545,-3.30321 -4.21631,-4.48486 l -3.08838,-1.31592 c -4.56543,-1.89777 -6.84815,-4.62807 -6.84814,-8.19092 -10e-6,-2.54229 0.89965,-4.54302 2.69897,-6.0022 1.79931,-1.45911 4.26553,-2.18869 7.39868,-2.18872 1.62922,3e-5 3.64338,0.22383 6.04248,0.67139 l 1.10108,0.21484 0,4.4043 c -2.95412,-0.87725 -5.30845,-1.31589 -7.06299,-1.31592 -1.53973,3e-5 -2.7706,0.33572 -3.69263,1.00708 -0.92204,0.67141 -1.38306,1.57107 -1.38305,2.69898 -1e-5,1.59344 1.28905,2.93622 3.86718,4.02832 l 2.55127,1.07422 c 2.88247,1.21746 4.92348,2.50205 6.12305,3.85376 1.19952,1.35173 1.79929,3.03915 1.79932,5.06225 -3e-5,2.56023 -1.01158,4.66391 -3.03467,6.31104 -2.02313,1.64713 -4.61021,2.4707 -7.76123,2.4707 -2.417,0 -5.3532,-0.56396 -8.8086,-1.69189 z"
           style="font-size:55px;line-height:125%;font-family:Lucida Sans Unicode;-inkscape-font-specification:Lucida Sans Unicode;fill:#cc002b;fill-opacity:1"
           id="path3236"
           inkscape:connector-curvature="0" />
        <path
           d="m 1018.7474,195.11102 c -3.545,1.07422 -6.5796,1.61133 -9.104,1.61133 -4.3148,0 -7.8239,-1.42781 -10.52737,-4.28345 -2.70346,-2.85562 -4.05518,-6.5572 -4.05518,-11.10473 0,-4.42218 1.19507,-8.04767 3.58521,-10.87647 2.39014,-2.82874 5.44714,-4.24313 9.17114,-4.24316 3.527,3e-5 6.2528,1.25776 8.1775,3.77319 1.9246,2.51549 2.8869,6.08279 2.887,10.70191 l -0.027,1.61132 -18.396,0 c 0.7698,6.92872 4.1626,10.39307 10.1782,10.39307 2.2022,0 4.9056,-0.59082 8.1104,-1.77246 z m -18.0469,-16.78467 12.8638,0 c -10e-5,-5.42478 -2.0232,-8.13718 -6.0694,-8.1372 -4.0641,2e-5 -6.3289,2.71242 -6.7944,8.1372 z"
           style="font-size:55px;line-height:125%;font-family:Lucida Sans Unicode;-inkscape-font-specification:Lucida Sans Unicode;fill:#cc002b;fill-opacity:1"
           id="path3238"
           inkscape:connector-curvature="0" />
        <path
           d="m 1042.783,195.29901 0,-5.58594 c 4.4759,2.07683 8.1641,3.11524 11.0645,3.11524 2.2021,0 3.979,-0.58634 5.3308,-1.75904 1.3517,-1.17268 2.0276,-2.69896 2.0276,-4.57885 0,-1.55761 -0.4432,-2.88248 -1.3294,-3.97461 -0.8862,-1.09211 -2.5199,-2.30956 -4.9011,-3.65235 l -2.7393,-1.58447 c -3.3838,-1.93357 -5.7694,-3.75527 -7.1569,-5.46509 -1.3876,-1.70977 -2.0813,-3.6926 -2.0813,-5.94848 0,-3.0794 1.11,-5.60828 3.33,-7.58667 2.2201,-1.97832 5.0489,-2.96749 8.4864,-2.96753 3.0615,4e-5 6.2931,0.51029 9.6948,1.53076 l 0,5.15625 c -4.1895,-1.6471 -7.3137,-2.47067 -9.3726,-2.4707 -1.9515,3e-5 -3.5628,0.51924 -4.8339,1.55761 -1.2712,1.03845 -1.9068,2.34541 -1.9068,3.9209 0,1.3249 0.4655,2.49759 1.3965,3.51807 0.931,1.02053 2.6318,2.23798 5.1025,3.65234 l 2.8467,1.61133 c 3.4375,1.95152 5.8366,3.79559 7.1973,5.53223 1.3606,1.73667 2.041,3.82244 2.041,6.25732 0,3.45541 -1.2712,6.23047 -3.8135,8.3252 -2.5423,2.09472 -5.9172,3.14209 -10.1245,3.14209 -2.6855,0 -6.1051,-0.58187 -10.2588,-1.74561 z"
           style="font-size:55px;line-height:125%;font-family:Lucida Sans Unicode;-inkscape-font-specification:Lucida Sans Unicode;fill:#cc002b;fill-opacity:1"
           id="path3240"
           inkscape:connector-curvature="0" />
        <path
           d="m 1088.0345,196.05096 c -1.6293,0.4476 -3.0437,0.67139 -4.2432,0.67139 -2.6855,0 -4.7803,-0.76986 -6.2842,-2.30957 -1.5039,-1.53971 -2.2558,-3.67919 -2.2558,-6.41846 l 0,-17.13379 -3.6524,0 0,-3.9746 3.6524,0 0,-5.29053 5.2905,-0.51026 0,5.80079 7.627,0 0,3.9746 -7.627,0 0,16.167 c 0,3.81348 1.6471,5.72022 4.9414,5.72021 0.6982,1e-5 1.5487,-0.11637 2.5513,-0.34912 z"
           style="font-size:55px;line-height:125%;font-family:Lucida Sans Unicode;-inkscape-font-specification:Lucida Sans Unicode;fill:#cc002b;fill-opacity:1"
           id="path3242"
           inkscape:connector-curvature="0" />
        <path
           d="m 1113.8963,196.05096 0,-5.47851 c -2.8109,4.09994 -6.2215,6.1499 -10.2319,6.1499 -2.5424,0 -4.5655,-0.80119 -6.0694,-2.40356 -1.5039,-1.60238 -2.2558,-3.76424 -2.2558,-6.4856 l 0,-20.94726 5.2905,0 0,19.22851 c 0,2.18425 0.3178,3.73739 0.9534,4.65942 0.6355,0.92205 1.6963,1.38307 3.1823,1.38306 3.2227,10e-6 6.2663,-2.12157 9.1309,-6.36474 l 0,-18.90625 5.2905,0 0,29.16503 z"
           style="font-size:55px;line-height:125%;font-family:Lucida Sans Unicode;-inkscape-font-specification:Lucida Sans Unicode;fill:#cc002b;fill-opacity:1"
           id="path3244"
           inkscape:connector-curvature="0" />
        <path
           d="m 1148.5399,196.05096 0,-5.47851 c -2.1485,4.09994 -5.3891,6.1499 -9.7217,6.1499 -3.5091,0 -6.2708,-1.28011 -8.2849,-3.84033 -2.0142,-2.56022 -3.0213,-6.06038 -3.0213,-10.50049 0,-4.85187 1.1414,-8.75486 3.4241,-11.70898 2.2827,-2.95408 5.286,-4.43113 9.01,-4.43116 3.4554,3e-5 6.32,1.3249 8.5938,3.97461 l 0,-16.56982 5.3173,0 0,42.40478 z m 0,-22.20947 c -2.7393,-2.41697 -5.3353,-3.62546 -7.7881,-3.62549 -2.417,3e-5 -4.288,1.01158 -5.6128,3.03467 -1.3249,2.02313 -1.9873,4.88771 -1.9873,8.59375 0,6.8213 2.2558,10.23194 6.7676,10.23193 2.9361,1e-5 5.8097,-1.60237 8.6206,-4.80712 z"
           style="font-size:55px;line-height:125%;font-family:Lucida Sans Unicode;-inkscape-font-specification:Lucida Sans Unicode;fill:#cc002b;fill-opacity:1"
           id="path3246"
           inkscape:connector-curvature="0" />
        <path
           d="m 1185.7884,195.11102 c -3.545,1.07422 -6.5796,1.61133 -9.104,1.61133 -4.3148,0 -7.8239,-1.42781 -10.5274,-4.28345 -2.7034,-2.85562 -4.0551,-6.5572 -4.0551,-11.10473 0,-4.42218 1.195,-8.04767 3.5852,-10.87647 2.3901,-2.82874 5.4471,-4.24313 9.1711,-4.24316 3.527,3e-5 6.2528,1.25776 8.1775,3.77319 1.9246,2.51549 2.8869,6.08279 2.887,10.70191 l -0.027,1.61132 -18.396,0 c 0.7699,6.92872 4.1626,10.39307 10.1782,10.39307 2.2022,0 4.9056,-0.59082 8.1104,-1.77246 z m -18.0469,-16.78467 12.8638,0 c 0,-5.42478 -2.0231,-8.13718 -6.0694,-8.1372 -4.0641,2e-5 -6.3289,2.71242 -6.7944,8.1372 z"
           style="font-size:55px;line-height:125%;font-family:Lucida Sans Unicode;-inkscape-font-specification:Lucida Sans Unicode;fill:#cc002b;fill-opacity:1"
           id="path3248"
           inkscape:connector-curvature="0" />
        <path
           d="m 1195.0267,196.05096 0,-29.16503 5.2905,0 0,5.47851 c 2.793,-4.082 6.2125,-6.12302 10.2588,-6.12305 2.5423,3e-5 4.5609,0.80122 6.0559,2.40357 1.4949,1.6024 2.2424,3.75531 2.2424,6.45874 l 0,20.94726 -5.2905,0 0,-19.22851 c 0,-2.16632 -0.3178,-3.71051 -0.9534,-4.63257 -0.6356,-0.92201 -1.6874,-1.38303 -3.1555,-1.38306 -3.2406,3e-5 -6.2931,2.12161 -9.1577,6.36475 l 0,18.87939 z"
           style="font-size:55px;line-height:125%;font-family:Lucida Sans Unicode;-inkscape-font-specification:Lucida Sans Unicode;fill:#cc002b;fill-opacity:1"
           id="path3250"
           inkscape:connector-curvature="0" />
        <path
           d="m 1242.1849,196.05096 c -1.6293,0.4476 -3.0437,0.67139 -4.2432,0.67139 -2.6855,0 -4.7803,-0.76986 -6.2842,-2.30957 -1.5039,-1.53971 -2.2558,-3.67919 -2.2558,-6.41846 l 0,-17.13379 -3.6524,0 0,-3.9746 3.6524,0 0,-5.29053 5.2905,-0.51026 0,5.80079 7.627,0 0,3.9746 -7.627,0 0,16.167 c 0,3.81348 1.6471,5.72022 4.9414,5.72021 0.6982,1e-5 1.5487,-0.11637 2.5513,-0.34912 z"
           style="font-size:55px;line-height:125%;font-family:Lucida Sans Unicode;-inkscape-font-specification:Lucida Sans Unicode;fill:#cc002b;fill-opacity:1"
           id="path3252"
           inkscape:connector-curvature="0" />
        <path
           d="m 1262.3802,196.05096 15.7641,-39.74609 5.586,0 15.5224,39.74609 -6.0961,0 -4.3238,-11.01074 -16.8384,0 -4.3774,11.01074 z m 11.2524,-15.20019 13.562,0 -6.7675,-17.13379 z"
           style="font-size:55px;line-height:125%;font-family:Lucida Sans Unicode;-inkscape-font-specification:Lucida Sans Unicode;fill:#cc002b;fill-opacity:1"
           id="path3254"
           inkscape:connector-curvature="0" />
        <path
           d="m 1304.0599,195.03046 0,-4.86084 c 3.4554,1.71875 6.4632,2.57813 9.0234,2.57812 1.5218,1e-5 2.784,-0.41178 3.7866,-1.23535 1.0026,-0.82356 1.5039,-1.85302 1.5039,-3.08838 0,-1.80826 -1.4054,-3.30321 -4.2163,-4.48486 l -3.0883,-1.31592 c -4.5655,-1.89777 -6.8482,-4.62807 -6.8482,-8.19092 0,-2.54229 0.8997,-4.54302 2.699,-6.0022 1.7993,-1.45911 4.2655,-2.18869 7.3987,-2.18872 1.6292,3e-5 3.6433,0.22383 6.0424,0.67139 l 1.1011,0.21484 0,4.4043 c -2.9541,-0.87725 -5.3084,-1.31589 -7.063,-1.31592 -1.5397,3e-5 -2.7706,0.33572 -3.6926,1.00708 -0.922,0.67141 -1.3831,1.57107 -1.3831,2.69898 0,1.59344 1.2891,2.93622 3.8672,4.02832 l 2.5513,1.07422 c 2.8825,1.21746 4.9235,2.50205 6.1231,3.85376 1.1995,1.35173 1.7992,3.03915 1.7993,5.06225 -10e-5,2.56023 -1.0116,4.66391 -3.0347,6.31104 -2.0231,1.64713 -4.6102,2.4707 -7.7612,2.4707 -2.417,0 -5.3532,-0.56396 -8.8086,-1.69189 z"
           style="font-size:55px;line-height:125%;font-family:Lucida Sans Unicode;-inkscape-font-specification:Lucida Sans Unicode;fill:#cc002b;fill-opacity:1"
           id="path3256"
           inkscape:connector-curvature="0" />
        <path
           d="m 1332.097,195.03046 0,-4.86084 c 3.4554,1.71875 6.4632,2.57813 9.0234,2.57812 1.5218,1e-5 2.784,-0.41178 3.7866,-1.23535 1.0026,-0.82356 1.5039,-1.85302 1.5039,-3.08838 0,-1.80826 -1.4054,-3.30321 -4.2163,-4.48486 l -3.0883,-1.31592 c -4.5655,-1.89777 -6.8482,-4.62807 -6.8482,-8.19092 0,-2.54229 0.8997,-4.54302 2.699,-6.0022 1.7993,-1.45911 4.2655,-2.18869 7.3987,-2.18872 1.6292,3e-5 3.6433,0.22383 6.0425,0.67139 l 1.101,0.21484 0,4.4043 c -2.9541,-0.87725 -5.3084,-1.31589 -7.063,-1.31592 -1.5397,3e-5 -2.7706,0.33572 -3.6926,1.00708 -0.922,0.67141 -1.3831,1.57107 -1.383,2.69898 -10e-5,1.59344 1.289,2.93622 3.8671,4.02832 l 2.5513,1.07422 c 2.8825,1.21746 4.9235,2.50205 6.1231,3.85376 1.1995,1.35173 1.7993,3.03915 1.7993,5.06225 0,2.56023 -1.0116,4.66391 -3.0347,6.31104 -2.0231,1.64713 -4.6102,2.4707 -7.7612,2.4707 -2.417,0 -5.3532,-0.56396 -8.8086,-1.69189 z"
           style="font-size:55px;line-height:125%;font-family:Lucida Sans Unicode;-inkscape-font-specification:Lucida Sans Unicode;fill:#cc002b;fill-opacity:1"
           id="path3258"
           inkscape:connector-curvature="0" />
        <path
           d="m 1372.8099,196.72235 c -4.279,0 -7.6673,-1.36963 -10.1648,-4.10889 -2.4976,-2.73925 -3.7464,-6.45425 -3.7464,-11.14502 0,-4.69073 1.2488,-8.40126 3.7464,-11.13159 2.4975,-2.73027 5.8858,-4.09543 10.1648,-4.09546 4.2789,3e-5 7.6672,1.36519 10.1648,4.09546 2.4975,2.73033 3.7463,6.44086 3.7463,11.13159 0,4.69077 -1.2488,8.40577 -3.7463,11.14502 -2.4976,2.73926 -5.8859,4.10889 -10.1648,4.10889 z m 0,-3.97461 c 2.6318,1e-5 4.6728,-0.98469 6.123,-2.9541 1.4502,-1.96939 2.1753,-4.74446 2.1753,-8.3252 0,-3.58071 -0.7251,-6.35129 -2.1753,-8.31176 -1.4502,-1.96043 -3.4912,-2.94065 -6.123,-2.94068 -2.6319,3e-5 -4.6684,0.98025 -6.1096,2.94068 -1.4413,1.96047 -2.1619,4.73105 -2.1619,8.31176 0,3.58074 0.7206,6.35581 2.1619,8.3252 1.4412,1.96941 3.4777,2.95411 6.1096,2.9541 z"
           style="font-size:55px;line-height:125%;font-family:Lucida Sans Unicode;-inkscape-font-specification:Lucida Sans Unicode;fill:#cc002b;fill-opacity:1"
           id="path3260"
           inkscape:connector-curvature="0" />
        <path
           d="m 1415.2952,195.16473 c -3.4196,1.03842 -6.3737,1.55762 -8.8623,1.55762 -3.9388,0 -7.2062,-1.45915 -9.8022,-4.37744 -2.5961,-2.91829 -3.8941,-6.59748 -3.8941,-11.0376 0,-4.74444 1.2846,-8.44154 3.8538,-11.09131 2.5692,-2.64971 6.1544,-3.97458 10.7556,-3.97461 2.2738,3e-5 4.8161,0.31335 7.627,0.93995 l 0,4.43115 c -2.99,-0.87726 -5.4249,-1.31589 -7.3047,-1.31592 -2.7214,3e-5 -4.8967,1.01606 -6.5259,3.0481 -1.6292,2.03208 -2.4439,4.74 -2.4439,8.12377 0,3.27638 0.8415,5.92612 2.5245,7.94922 1.6829,2.02312 3.885,3.03468 6.6064,3.03467 2.417,1e-5 4.9056,-0.61767 7.4658,-1.85303 z"
           style="font-size:55px;line-height:125%;font-family:Lucida Sans Unicode;-inkscape-font-specification:Lucida Sans Unicode;fill:#cc002b;fill-opacity:1"
           id="path3262"
           inkscape:connector-curvature="0" />
        <path
           d="m 1423.1907,196.05096 0,-29.16503 5.2906,0 0,29.16503 z m 0,-34.45556 0,-5.29053 5.2906,0 0,5.29053 z"
           style="font-size:55px;line-height:125%;font-family:Lucida Sans Unicode;-inkscape-font-specification:Lucida Sans Unicode;fill:#cc002b;fill-opacity:1"
           id="path3264"
           inkscape:connector-curvature="0" />
        <path
           d="m 1454.1282,192.34491 c -3.1689,2.91829 -6.2215,4.37744 -9.1577,4.37744 -2.417,0 -4.4222,-0.75643 -6.0156,-2.26929 -1.5934,-1.51285 -2.3901,-3.42406 -2.3901,-5.73364 0,-3.18684 1.3383,-5.63516 4.0149,-7.34497 2.6765,-1.70978 6.5213,-2.56468 11.5344,-2.5647 l 1.2353,0 0,-3.51806 c 0,-3.38377 -1.7635,-5.07566 -5.2905,-5.07569 -2.7393,3e-5 -5.7292,0.8594 -8.9697,2.57813 l 0,-4.37744 c 3.5628,-1.45017 6.9197,-2.17527 10.0708,-2.1753 3.2405,3e-5 5.6306,0.73856 7.1704,2.21558 1.5397,1.47708 2.3095,3.75531 2.3096,6.83472 l 0,13.21289 c -1e-4,3.02572 0.9309,4.53857 2.7929,4.53857 0.2327,0 0.5729,-0.0358 1.0205,-0.10742 l 0.376,2.92725 c -1.1996,0.57291 -2.5244,0.85937 -3.9746,0.85937 -2.4707,0 -4.0462,-1.45915 -4.7266,-4.37744 z m -0.7788,-2.87354 0,-7.54638 -1.6919,-0.0537 c -2.9362,1e-5 -5.3039,0.54607 -7.1032,1.63818 -1.7994,1.09213 -2.699,2.54233 -2.699,4.35059 0,1.27116 0.4476,2.34538 1.3428,3.22265 0.8951,0.87729 1.9873,1.31592 3.2763,1.31592 2.2022,0 4.4938,-0.97574 6.875,-2.92725 z"
           style="font-size:55px;line-height:125%;font-family:Lucida Sans Unicode;-inkscape-font-specification:Lucida Sans Unicode;fill:#cc002b;fill-opacity:1"
           id="path3266"
           inkscape:connector-curvature="0" />
        <path
           d="m 1482.4876,196.05096 c -1.6292,0.4476 -3.0436,0.67139 -4.2432,0.67139 -2.6855,0 -4.7802,-0.76986 -6.2841,-2.30957 -1.5039,-1.53971 -2.2559,-3.67919 -2.2559,-6.41846 l 0,-17.13379 -3.6523,0 0,-3.9746 3.6523,0 0,-5.29053 5.2905,-0.51026 0,5.80079 7.627,0 0,3.9746 -7.627,0 0,16.167 c 0,3.81348 1.6472,5.72022 4.9414,5.72021 0.6983,1e-5 1.5487,-0.11637 2.5513,-0.34912 z"
           style="font-size:55px;line-height:125%;font-family:Lucida Sans Unicode;-inkscape-font-specification:Lucida Sans Unicode;fill:#cc002b;fill-opacity:1"
           id="path3268"
           inkscape:connector-curvature="0" />
        <path
           d="m 1490.1146,196.05096 0,-29.16503 5.2905,0 0,29.16503 z m 0,-34.45556 0,-5.29053 5.2905,0 0,5.29053 z"
           style="font-size:55px;line-height:125%;font-family:Lucida Sans Unicode;-inkscape-font-specification:Lucida Sans Unicode;fill:#cc002b;fill-opacity:1"
           id="path3270"
           inkscape:connector-curvature="0" />
        <path
           d="m 1517.6146,196.72235 c -4.279,0 -7.6673,-1.36963 -10.1648,-4.10889 -2.4976,-2.73925 -3.7464,-6.45425 -3.7464,-11.14502 0,-4.69073 1.2488,-8.40126 3.7464,-11.13159 2.4975,-2.73027 5.8858,-4.09543 10.1648,-4.09546 4.2789,3e-5 7.6672,1.36519 10.1648,4.09546 2.4975,2.73033 3.7463,6.44086 3.7463,11.13159 0,4.69077 -1.2488,8.40577 -3.7463,11.14502 -2.4976,2.73926 -5.8859,4.10889 -10.1648,4.10889 z m 0,-3.97461 c 2.6318,1e-5 4.6728,-0.98469 6.123,-2.9541 1.4502,-1.96939 2.1753,-4.74446 2.1753,-8.3252 0,-3.58071 -0.7251,-6.35129 -2.1753,-8.31176 -1.4502,-1.96043 -3.4912,-2.94065 -6.123,-2.94068 -2.6319,3e-5 -4.6684,0.98025 -6.1097,2.94068 -1.4412,1.96047 -2.1618,4.73105 -2.1618,8.31176 0,3.58074 0.7206,6.35581 2.1618,8.3252 1.4413,1.96941 3.4778,2.95411 6.1097,2.9541 z"
           style="font-size:55px;line-height:125%;font-family:Lucida Sans Unicode;-inkscape-font-specification:Lucida Sans Unicode;fill:#cc002b;fill-opacity:1"
           id="path3272"
           inkscape:connector-curvature="0" />
        <path
           d="m 1539.8509,196.05096 0,-29.16503 5.2905,0 0,5.47851 c 2.793,-4.082 6.2126,-6.12302 10.2588,-6.12305 2.5423,3e-5 4.5609,0.80122 6.0559,2.40357 1.4949,1.6024 2.2424,3.75531 2.2424,6.45874 l 0,20.94726 -5.2905,0 0,-19.22851 c 0,-2.16632 -0.3178,-3.71051 -0.9533,-4.63257 -0.6357,-0.92201 -1.6875,-1.38303 -3.1556,-1.38306 -3.2405,3e-5 -6.2931,2.12161 -9.1577,6.36475 l 0,18.87939 z"
           style="font-size:55px;line-height:125%;font-family:Lucida Sans Unicode;-inkscape-font-specification:Lucida Sans Unicode;fill:#cc002b;fill-opacity:1"
           id="path3274"
           inkscape:connector-curvature="0" />
      </g>
    </g>
    <g
       transform="translate(-38.725647,1)"
       id="g3564"
       style="fill:#cc002b;fill-opacity:1">
      <path
         style="fill:#cc002b;fill-opacity:1"
         d="M 199.03125,0 198.5,37.5 c 5e-4,0 -10.19527,0.02048 -13.40625,0.125 -3.99284,0.02516 -3.84967,2.896973 -2.46875,5.71875 2.60787,5.637811 5.26387,11.253292 7.90625,16.875 -7.70727,0.227123 -15.47708,0.06514 -23.1875,0.09375 -4.2052,0.05063 -2.2861,2.810931 0.4375,5.84375 2.7236,3.032819 9.19659,11.596949 10.875,13.40625 1.67841,1.809301 4.39402,4.914559 0.0625,4.65625 -2.33994,-0.169215 -6.62209,0.02531 -10.375,0.03125 -3.75291,0.0059 -4.56412,1.676458 -2.125,4.03125 2.43912,2.354793 11.1875,11.59375 11.1875,11.59375 2.51418,2.67055 1.84983,2.66804 -0.28125,2.65625 -6.22419,-0.0186 -7.79203,-0.0306 -9.5625,0.0312 -1.77047,0.062 -4.1814,0.58681 -1.4375,3.4375 2.74391,2.85069 13.03125,12.9375 13.03125,12.9375 3.44308,2.96081 1.48427,3.2221 -1.15625,3 -5.53824,0.0178 -8.27354,0.0524 -10.9375,0.1875 -2.66397,0.13528 -3.21413,1.10213 0.34375,4.0625 l 14.5,14.21875 c 1.60684,1.54426 1.45786,1.61412 -0.875,1.625 -3.6201,-0.0958 -7.25426,-0.0482 -10.875,-0.0312 -2.27912,-0.007 -2.37683,3.22151 -0.3125,5.28125 5.64912,5.63657 13.29799,14.17533 15.125,15.96875 0.9409,0.9415 0.85945,2.40633 0.5,3.3125 -2.11844,5.15741 -10.02496,22.65905 -14.46875,32.1875 -2.33217,4.26106 -2.55237,7.16025 0.90625,7.40625 5.98473,-0.0291 15.29017,-0.0619 21.0625,-0.0937 2.51428,-0.005 2.43073,-6.39784 0.21875,-6.46875 -2.63495,-0.0221 -9.46495,-0.1297 -13.59375,0.0312 -1.31785,8.7e-4 -1.95311,-0.70113 -1.4375,-1.875 0,0 12.74501,-28.584 13.46875,-29.84375 0.72374,-1.25975 1.5257,-3.02308 0.0312,-5.28125 -0.77802,-1.16614 -7.8048,-8.54375 -10.875,-11.84375 -1.17326,-1.7044 -3.15082,-3.17724 -0.71875,-3.125 3.62715,-0.1525 8.01566,-0.19587 11.4375,-0.15625 3.42184,0.0396 1.79458,-3.72472 0.5625,-5 -1.23208,-1.27528 -11.21875,-11.34375 -11.21875,-11.34375 -3.21669,-2.86574 -1.8703,-3.75679 0.53125,-3.53125 0,0 7.88813,-0.17226 10.125,-0.125 2.23687,0.0473 1.7787,-2.51337 0.5625,-4 -1.2162,-1.48664 -9.43656,-8.84133 -12.90625,-12.28125 -3.46968,-3.43994 -2.00494,-3.10767 0.0937,-3.125 2.09877,-0.0173 8.7125,-0.0611 10.15625,-0.0937 2.17325,0.33715 3.33656,-2.06797 2.46875,-3.03125 -4.96273,-4.9612 -8.26548,-8.173014 -13.21875,-13.5 -0.56416,-0.654464 -1.06175,-1.594496 2.21875,-1.5625 0,0 6.85592,0.04644 9.0625,0.09375 2.20658,0.04731 3.29466,-2.335184 2.0625,-3.84375 -3.64477,-4.561465 -10.45261,-12.415018 -13.96875,-16.3125 -4.13607,-4.032608 -2.18395,-3.697228 1.46875,-3.78125 16.65356,-0.103235 30.90644,-0.140369 47.8125,0 3.6527,0.08402 5.60482,-0.25136 1.46875,3.78125 -3.51614,3.89748 -10.32398,11.75103 -13.96875,16.3125 -1.23216,1.50856 -0.14408,3.89105 2.0625,3.84375 2.20658,-0.0473 9.0625,-0.09375 9.0625,-0.09375 3.2805,-0.032 2.78291,0.87679 2.21875,1.53125 -4.95327,5.326992 -8.25602,8.538807 -13.21875,13.5 -0.86781,0.96328 0.2955,3.3684 2.46875,3.03125 1.44375,0.0326 8.05748,0.0764 10.15625,0.0937 2.09869,0.0173 3.56348,-0.31494 0.0937,3.125 -3.46969,3.43992 -11.69005,10.79461 -12.90625,12.28125 -1.2162,1.48663 -1.67437,4.0473 0.5625,4 2.23687,-0.0473 10.125,0.125 10.125,0.125 2.40155,-0.22554 3.74794,0.66551 0.53125,3.53125 0,0 -9.98667,10.06847 -11.21875,11.34375 -1.23208,1.27528 -2.85934,5.0396 0.5625,5 3.42184,-0.0396 7.81035,0.004 11.4375,0.15625 2.43207,-0.0522 0.45451,1.4206 -0.71875,3.125 -3.0702,3.3 -10.09698,10.67761 -10.875,11.84375 -1.49445,2.25817 -0.69244,4.0215 0.0312,5.28125 0.72374,1.25975 13.46875,29.84375 13.46875,29.84375 0.51561,1.17387 -0.11965,1.87587 -1.4375,1.875 -4.1288,-0.16095 -10.9588,-0.0533 -13.59375,-0.0312 -2.21198,0.0709 -2.29553,6.46375 0.21875,6.46875 5.77233,0.0318 15.07777,0.0648 21.0625,0.0937 3.45862,-0.246 3.23842,-3.14519 0.90625,-7.40625 -4.44379,-9.52845 -12.35031,-27.03009 -14.46875,-32.1875 -0.35945,-0.90617 -0.4409,-2.371 0.5,-3.3125 1.82701,-1.79342 9.47588,-10.33218 15.125,-15.96875 2.06433,-2.05974 1.96662,-5.28825 -0.3125,-5.28125 -3.62074,-0.017 -7.2549,-0.0644 -10.875,0.0312 -2.33286,-0.0109 -2.48184,-0.0807 -0.875,-1.625 l 14.46895,-14.2187 c 3.55788,-2.96037 3.00772,-3.92722 0.34375,-4.0625 -2.66396,-0.1351 -5.36801,-0.1697 -10.90625,-0.1875 -2.64052,0.2221 -4.59933,-0.0392 -1.15625,-3 0,0 10.28734,-10.08681 13.03125,-12.9375 2.7439,-2.85069 0.33297,-3.3755 -1.4375,-3.4375 -1.77047,-0.0618 -3.33831,-0.0499 -9.5625,-0.0312 -2.13108,0.0118 -2.79543,0.0143 -0.28125,-2.65625 0,0 8.74838,-9.23896 11.1875,-11.59375 2.43912,-2.3548 1.62791,-4.02525 -2.125,-4.03125 -3.75291,-0.0058 -8.03506,-0.20046 -10.375,-0.03125 -4.33152,0.25831 -1.61591,-2.84695 0.0625,-4.65625 1.67841,-1.8093 8.1514,-10.37343 10.875,-13.40625 2.7236,-3.03282 4.6427,-5.79315 0.4375,-5.84375 -7.71042,-0.0286 -15.48023,0.16462 -23.1875,-0.0625 2.64238,-5.621709 5.29838,-11.23719 7.90625,-16.875 1.38092,-2.82178 1.52409,-5.69359 -2.46875,-5.71875 C 215.8345,37.464883 210.55382,37.494728 204.5,37.50005 L 203.03125,0 z M 191.125,43.25 c 8.15698,-0.01191 15.19644,0.01387 23.375,0 1.73797,-0.004 3.04224,-0.22187 1.875,2.34375 -1.16724,2.56562 -4.50141,9.492411 -6.6875,14.40625 -4.4049,0 -8.15641,0 -12.5625,0 -2.18609,-4.913837 -5.52026,-11.840626 -6.6875,-14.40625 -0.87543,-1.924218 -0.35782,-2.286447 0.6875,-2.34375 z"
         id="path3432"
         inkscape:connector-curvature="0"
         sodipodi:nodetypes="ccccccssccscccscccccccsccccccccscccsscccsscccccsccccccsccccssssccssccccccccccccscccccccscccsccsscccccccccsccsc" />
      <path
         inkscape:connector-curvature="0"
         style="fill:#cc002b;fill-opacity:1"
         d="m 299.21875,107.09375 c -2.67016,-0.002 -5.38644,0.18725 -8.0625,0.625 -8.38757,1.09549 -13.64287,2.57079 -19.125,9.09375 -4.67411,5.79705 -5.97963,10.30352 -6.125,16.90625 0.008,7.72519 1.62767,12.11092 5.96875,16.65625 5.56519,5.82703 11.80894,9.33317 22,13.5625 9.73259,4.03906 13.30166,5.47127 15.71875,9.75 5.05519,8.94868 -2.24627,18.375 -13.875,18.375 -4.70627,0 -17.48895,-1.74216 -22.625,-4.5 -2.16523,-1.08922 -4.6536,-1.98049 -7.09375,-2.6875 l 0,15.71875 c 8.12993,3.80235 18.33225,5.9335 28.5,5.875 14.61728,0.35356 28.02297,-4.25079 33.53125,-17.71875 1.86824,-5.17202 4.73263,-13.93608 0.15625,-22.875 -4.2926,-8.17571 -9.47359,-10.60532 -26.40625,-18.6875 -9.1902,-4.3866 -14.94247,-7.27196 -16.875,-11.9375 -2.07437,-3.79757 -0.23908,-10.10121 6.03125,-12.40625 11.62474,-3.05317 19.47954,0.52824 30.34375,2.15625 1.44811,-4.01225 0.007,-9.83669 0.21875,-14.34375 -6.4857,-1.81873 -14.27078,-3.55546 -22.28125,-3.5625 z"
         id="path3428" />
      <path
         inkscape:connector-curvature="0"
         style="fill:#cc002b;fill-opacity:1"
         d="m 107.25,108.34375 c -8.745353,0.0675 -16.890483,1.54722 -22.093753,4.71875 -12.215003,7.4424 -21.238297,17.15262 -21.999997,45.53125 0.526523,16.8288 4.930238,32.43523 22.812497,42.09375 C 103.37041,209.58216 121.9295,204.65096 134,199.75 l 0,-7.40625 0,-7.53125 c -10.40079,5.29688 -21.01342,7.67361 -33.65625,3.875 -10.857563,-4.89371 -17.724683,-17.0334 -17.156253,-29.3125 -0.54627,-12.3168 1.77751,-25.83027 14.125,-33.53125 C 106.88331,121.73735 120.70258,123.44336 133,126 l 0,-13.84375 c -7.66132,-2.54127 -17.00465,-3.88 -25.75,-3.8125 z"
         id="path3426" />
      <path
         inkscape:connector-curvature="0"
         style="fill:#cc002b;fill-opacity:1"
         d="m 390.59375,111.375 c -11.34883,0.11039 -20.33009,3.03774 -29.59375,7.09375 0,5.23372 0.024,9.75382 0.0937,14.625 11.01733,-5.23209 16.9465,-6.54636 25.125,-7.0625 7.65525,-0.48311 11.82504,-0.17462 17.5,5.875 2.72391,6.59853 2.1179,12.17344 2.28125,18.96875 l 0,15.5625 c -3.06763,-6.63958 -10.46717,-8.60944 -15.875,-8.375 -2.46109,-9.50107 -5.9519,-15.98509 -13.0625,-16.21875 -7.1106,-0.23366 -10.8658,8.43757 -12.4375,14.78125 -14.79105,-3.07107 -19.76102,3.76829 -19.375,10.03125 0.38601,6.26297 5.63759,9.96839 10.78125,12.625 -4.46257,6.56548 -8.3384,14.03448 -3.03125,19.65625 5.30715,5.62177 15.51335,1.0315 19.78125,-1.875 6.17791,5.96645 15.45551,8.33195 20.09375,5.625 4.63824,-2.70695 2.86053,-15.61808 -0.0312,-19.59375 5.30477,-1.61231 11.7438,-5.36139 13.375,-10.5625 L 406,183.375 c -0.14924,6.95169 -0.72731,13.49768 3.40625,18.625 4.13357,5.12733 8.24699,6.44827 15.5625,6.09375 3.56997,-0.0255 6.59783,0.26217 10.9375,-1.53125 l 0.3125,-11.5 C 426.42887,196.3052 423.9715,188.92376 423.9375,186 l -0.0625,-52.21875 c 0,0 -0.82684,-8.60234 -5.3125,-13.46875 -4.48566,-4.86641 -11.45167,-9.17249 -25.65625,-8.9375 -0.77847,-0.0184 -1.55591,-0.007 -2.3125,0 z m -13.625,32.75 c 7.19219,0.0951 10.34376,11.47895 10.34375,16.9375 6.89865,-0.56996 16.55079,0.70071 16.28125,10.28125 0.10376,4.17743 -7.20512,8.6747 -13.6875,10.5 3.10225,5.99921 5.54957,16.49731 1.84375,18.90625 -5.0993,3.31476 -14.30433,-2.00268 -18.5,-6.46875 -6.54481,4.38907 -12.74519,7.72637 -18.375,3.15625 -5.6298,-4.57011 1.35355,-14.58242 4.53125,-18.65625 -4.78851,-3.00841 -12.6687,-5.59902 -11.5,-13.5625 1.16871,-7.96348 10.54888,-8.10214 18.5,-5.84375 1.75317,-4.73889 3.37031,-15.34511 10.5625,-15.25 z M 376.75,158.90625 c -1.24304,0 -2.25,1.00696 -2.25,2.25 0,0.62152 0.47694,1.20806 0.53125,1.78125 0.11892,1.25501 -1.12703,4.46688 -1.21875,6.90625 -2.32833,0.7505 -2.85485,1.66678 -3.625,2.9375 -2.44057,-0.95835 -5.75809,-1.55436 -6.8125,-3.4375 -0.16464,-1.2156 -0.97571,-1.875 -2.21875,-1.875 -1.24304,0 -2.28125,1.00696 -2.28125,2.25 0,1.24304 1.03821,2.25 2.28125,2.25 2.46432,0.28691 5.94658,2.64127 8.5625,3.34375 0.36661,1.16789 0.75335,1.7543 1.46875,2.40625 -1.6933,2.00988 -4.33548,5.37083 -5.4375,5.5625 l -0.78125,0.125 L 364,183.75 c -0.77191,0.35648 -1.3125,1.12487 -1.3125,2.03125 0,1.24304 1.00696,2.25 2.25,2.25 1.24304,0 2.25,-1.00696 2.25,-2.25 0.0499,-0.93276 1.16891,-2.0137 1.8125,-2.78125 l 3.90625,-4.28125 c 1.58054,0.72419 4.06968,0.70809 5.1875,0.40625 l 1.625,2.625 c 1.5511,2.32152 2.19531,3.59858 2.21875,6.03125 0,1.24304 1.00696,2.25 2.25,2.25 1.24304,0 2.25,-1.00696 2.25,-2.25 -0.43654,-2.68605 -1.69514,-1.04336 -3.5,-4.21875 0,0 -1.74722,-3.32362 -3.125,-4.9375 1.85511,-1.20299 2.57346,-2.59503 2.6875,-4.65625 l 5.6875,-0.1875 c 2.13845,-0.0959 1.64476,0.73412 3.59375,0.8125 0.0103,1.4e-4 0.021,0 0.0312,0 1.24304,0 2.25,-1.00696 2.25,-2.25 0,-1.24304 -1.00696,-2.25 -2.25,-2.25 -1.69267,0.0573 -1.01172,0.81401 -3.375,1.25 -2.20163,0.0924 -4.89913,0.16223 -6.46875,0.1875 -2.14863,-1.66979 -4.1201,-1.64591 -5.25,-1.8125 -0.28729,-2.87363 0.16143,-5.52365 0.96875,-6.375 0.7577,-0.36196 1.3125,-1.29148 1.3125,-2.1875 0,-1.24304 -1.00696,-2.25 -2.25,-2.25 z M 376.5625,173 c 3.653,0.0196 2.73556,3.12248 0.0937,3.09375 -1.47542,0.0823 -2.61703,-0.0104 -2.96875,-0.71875 -1.13344,-1.13346 0.36579,-2.375 2.875,-2.375 z"
         id="path3424" />
      <path
         inkscape:connector-curvature="0"
         style="fill:#cc002b;fill-opacity:1"
         d="m 456.34375,210.90625 c -134.25768,0.3106 -275.71997,0.0542 -414.125,0.0937 -3.197183,0.0204 -3.448713,8.9758 0,8.9375 138.25903,0.0519 275.74096,0.0935 414,0.0625 3.02684,-0.0436 2.73794,-9.09175 0.125,-9.09375 z"
         id="path3416" />
    </g>
  </g>
</svg>
