<?xml version="1.0" encoding="UTF-8" standalone="no"?>
<!-- Created with Inkscape (http://www.inkscape.org/) -->

<svg
   xmlns:dc="http://purl.org/dc/elements/1.1/"
   xmlns:cc="http://creativecommons.org/ns#"
   xmlns:rdf="http://www.w3.org/1999/02/22-rdf-syntax-ns#"
   xmlns:svg="http://www.w3.org/2000/svg"
   xmlns="http://www.w3.org/2000/svg"
   xmlns:sodipodi="http://sodipodi.sourceforge.net/DTD/sodipodi-0.dtd"
   xmlns:inkscape="http://www.inkscape.org/namespaces/inkscape"
   id="svg2985"
   version="1.1"
   inkscape:version="0.48.4 r9939"
   width="500.63315"
   height="301.8916"
   sodipodi:docname="Logo_og.svg">
  <metadata
     id="metadata2991">
    <rdf:RDF>
      <cc:Work
         rdf:about="">
        <dc:format>image/svg+xml</dc:format>
        <dc:type
           rdf:resource="http://purl.org/dc/dcmitype/StillImage" />
        <dc:title></dc:title>
      </cc:Work>
    </rdf:RDF>
  </metadata>
  <defs
     id="defs2989" />
  <sodipodi:namedview
     pagecolor="#ffffff"
     bordercolor="#666666"
     borderopacity="1"
     objecttolerance="10"
     gridtolerance="10"
     guidetolerance="10"
     inkscape:pageopacity="0"
     inkscape:pageshadow="2"
     inkscape:window-width="1366"
     inkscape:window-height="705"
     id="namedview2987"
     showgrid="false"
     inkscape:zoom="1.4142136"
     inkscape:cx="272.96313"
     inkscape:cy="134.94901"
     inkscape:window-x="-8"
     inkscape:window-y="-8"
     inkscape:window-maximized="1"
     inkscape:current-layer="text5680"
     fit-margin-top="1"
     fit-margin-left="1"
     fit-margin-right="1"
     fit-margin-bottom="1" />
  <g
     transform="matrix(1.0305545,0,0,0.97035139,1.0665807,1)"
     style="font-size:25.87415504px;font-style:normal;font-variant:normal;font-weight:bold;font-stretch:normal;line-height:125%;letter-spacing:0px;word-spacing:0px;fill:#cc002b;fill-opacity:1;stroke:none;font-family:Lucida Sans Unicode;-inkscape-font-specification:Lucida Sans Unicode Bold"
     id="text3190">
    <g
       id="g3320"
       style="fill:#cc002b;fill-opacity:1">
      <path
         id="path3216"
         d="m 15.343181,253.09448 c -1.945103,1.00334 -4.011528,1.50501 -6.1992795,1.50501 -2.9358019,0 -5.2044995,-0.86042 -6.8060998,-2.58126 -1.60160768,-1.72083 -2.40240966,-4.14864 -2.40240837,-7.28342 -1.29e-6,-3.12424 0.8160666,-5.55362 2.44820607,-7.28816 1.6321321,-1.73451 3.9310984,-2.60177 6.8969058,-2.60179 1.6571298,2e-5 3.6695968,0.28849 6.0374078,0.86542 l 0,2.88526 c -2.733666,-0.86698 -4.762715,-1.30048 -6.0871537,-1.3005 -1.897194,2e-5 -3.3677218,0.64461 -4.4115876,1.93377 -1.0438782,1.2892 -1.5658142,3.13269 -1.5658096,5.53048 -4.6e-6,2.29147 0.5575957,4.08166 1.6728026,5.37057 1.1151944,1.28892 2.6408636,1.93338 4.5770123,1.93338 1.675554,0 3.62222,-0.53273 5.840004,-1.59818 z"
         inkscape:connector-curvature="0"
         style="fill:#cc002b;fill-opacity:1" />
      <path
         id="path3218"
         d="m 24.655919,254.45104 c -2.06459,0 -3.696463,-0.65749 -4.895623,-1.97246 -1.199166,-1.31497 -1.798748,-3.08687 -1.798746,-5.3157 -2e-6,-2.22618 0.600238,-3.99545 1.80072,-5.3078 1.200476,-1.31233 2.831691,-1.9685 4.893649,-1.96852 2.059836,2e-5 3.690656,0.65685 4.892464,1.97049 1.201782,1.31367 1.80268,3.08228 1.802695,5.30583 -1.5e-5,2.22567 -0.600255,3.99678 -1.800721,5.31333 -1.200492,1.31655 -2.83197,1.97483 -4.894438,1.97483 z m 0,-2.33884 c 1.115982,0 1.986665,-0.42455 2.612051,-1.27366 0.625365,-0.84909 0.938053,-2.07431 0.938065,-3.67566 -1.2e-5,-1.59607 -0.313621,-2.818 -0.940828,-3.6658 -0.627229,-0.84777 -1.496991,-1.27166 -2.609288,-1.27167 -1.116525,1e-5 -1.985102,0.42232 -2.605735,1.26694 -0.620643,0.84463 -0.930962,2.06814 -0.930958,3.67053 -4e-6,1.60503 0.30992,2.83117 0.929774,3.67843 0.619843,0.84726 1.488815,1.27089 2.606919,1.27089 z"
         inkscape:connector-curvature="0"
         style="fill:#cc002b;fill-opacity:1" />
      <path
         id="path3220"
         d="m 34.995948,254.14151 0,-13.95805 2.996595,0 0,2.52756 c 0.663272,-1.88296 1.974561,-2.82444 3.93387,-2.82446 0.256352,2e-5 0.609047,0.0337 1.058086,0.10107 l 0,2.7455 c -0.642758,-0.14054 -1.107052,-0.21082 -1.392884,-0.21083 -1.432372,1e-5 -2.632061,0.85201 -3.599072,2.55599 l 0,9.06322 z"
         inkscape:connector-curvature="0"
         style="fill:#cc002b;fill-opacity:1" />
      <path
         id="path3222"
         d="m 45.658928,254.14151 0,-13.95805 2.996594,0 0,2.52756 c 1.000175,-1.88296 2.484916,-2.82444 4.454227,-2.82446 1.2539,2e-5 2.25158,0.39733 2.993042,1.19193 0.741436,0.79463 1.112161,1.84416 1.112175,3.14859 l 0,9.91443 -2.995805,0 0,-9.12165 c -1.1e-5,-0.94806 -0.12635,-1.60541 -0.379016,-1.97207 -0.252688,-0.36663 -0.665657,-0.54995 -1.238909,-0.54997 -1.390786,2e-5 -2.706022,0.9186 -3.945714,2.75577 l 0,8.88792 z"
         inkscape:connector-curvature="0"
         style="fill:#cc002b;fill-opacity:1" />
      <path
         id="path3224"
         d="m 72.19636,253.63931 c -1.785597,0.54115 -3.277971,0.81173 -4.477125,0.81173 -2.078804,0 -3.765949,-0.68407 -5.061442,-2.05221 -1.2955,-1.36814 -1.943248,-3.13425 -1.943247,-5.29833 -10e-7,-2.09616 0.574971,-3.82463 1.724918,-5.18541 1.14994,-1.36076 2.629022,-2.04115 4.43725,-2.04116 1.719249,1e-5 3.045935,0.61052 3.980062,1.83151 0.934104,1.22103 1.400372,2.92173 1.398806,5.10211 l -0.01816,0.99176 -8.476534,0 c 0.335319,2.85894 1.807426,4.28841 4.416325,4.28841 0.978062,0 2.317777,-0.27242 4.019148,-0.81726 z m -8.324137,-8.17884 5.377289,0 c -10e-6,-2.16512 -0.840425,-3.24769 -2.521246,-3.2477 -1.705051,1e-5 -2.657065,1.08258 -2.856043,3.2477 z"
         inkscape:connector-curvature="0"
         style="fill:#cc002b;fill-opacity:1" />
      <path
         id="path3226"
         d="m 76.232879,254.14151 0,-20.06495 2.996595,0 0,20.06495 z"
         inkscape:connector-curvature="0"
         style="fill:#cc002b;fill-opacity:1" />
      <path
         id="path3228"
         d="m 83.762664,254.14151 0,-20.06495 2.996595,0 0,20.06495 z"
         inkscape:connector-curvature="0"
         style="fill:#cc002b;fill-opacity:1" />
      <path
         id="path3230"
         d="m 103.81577,254.14151 0,-16.38849 -6.503282,0 0,-2.45018 16.164242,0 0,2.45018 -6.50328,0 0,16.38849 z"
         inkscape:connector-curvature="0"
         style="fill:#cc002b;fill-opacity:1" />
      <path
         id="path3232"
         d="m 123.00187,252.43199 c -1.27129,1.34603 -2.62364,2.01905 -4.05705,2.01905 -1.19759,0 -2.18948,-0.37323 -2.97567,-1.11968 -0.7862,-0.74645 -1.1793,-1.68793 -1.17929,-2.82445 -1e-5,-1.55554 0.64958,-2.74826 1.94877,-3.57815 1.29918,-0.82988 3.13293,-1.24482 5.50126,-1.24483 l 0.29216,0 0,-1.36999 c -1e-5,-1.39234 -0.72093,-2.08852 -2.16276,-2.08853 -1.21391,1e-5 -2.68576,0.3964 -4.41554,1.18916 l 0,-2.43518 c 1.78874,-0.72854 3.42983,-1.09281 4.92326,-1.09283 1.57291,2e-5 2.74127,0.3664 3.50511,1.09915 0.76381,0.73278 1.14572,1.84219 1.14573,3.32823 l 0,6.09426 c -1e-5,1.22707 0.33663,1.8406 1.00992,1.8406 0.0921,0 0.32926,-0.0166 0.71144,-0.0497 l 0.21083,1.74664 c -0.69329,0.3369 -1.3971,0.50535 -2.11143,0.50535 -1.2913,0 -2.07354,-0.67302 -2.34674,-2.01905 z m -0.46982,-1.68899 0,-3.12609 -0.52826,-0.0158 c -1.28076,0 -2.30397,0.23241 -3.06963,0.69723 -0.76567,0.46482 -1.1485,1.06888 -1.1485,1.81217 0,0.52483 0.17924,0.96281 0.53773,1.31392 0.35848,0.35112 0.79698,0.52668 1.3155,0.52667 0.94543,1e-5 1.90981,-0.4027 2.89316,-1.20811 z"
         inkscape:connector-curvature="0"
         style="fill:#cc002b;fill-opacity:1" />
      <path
         id="path3234"
         d="m 130.30583,254.14151 0,-13.95805 2.9966,0 0,13.95805 z m 0,-15.89261 0,-2.94606 2.9966,0 0,2.94606 z"
         inkscape:connector-curvature="0"
         style="fill:#cc002b;fill-opacity:1" />
      <path
         id="path3236"
         d="m 139.45747,254.14151 -3.91334,-13.95805 2.88131,0 2.74392,10.4182 2.96106,-10.4182 2.86947,0 2.59626,10.4182 3.15057,-10.4182 2.5781,0 -4.45897,13.95805 -2.87499,0 -2.64758,-10.41741 -2.99344,10.41741 z"
         inkscape:connector-curvature="0"
         style="fill:#cc002b;fill-opacity:1" />
      <path
         id="path3238"
         d="m 164.89576,252.43199 c -1.27129,1.34603 -2.62364,2.01905 -4.05705,2.01905 -1.19759,0 -2.18948,-0.37323 -2.97567,-1.11968 -0.7862,-0.74645 -1.1793,-1.68793 -1.17929,-2.82445 -1e-5,-1.55554 0.64959,-2.74826 1.94877,-3.57815 1.29918,-0.82988 3.13293,-1.24482 5.50126,-1.24483 l 0.29216,0 0,-1.36999 c -1e-5,-1.39234 -0.72093,-2.08852 -2.16276,-2.08853 -1.21391,1e-5 -2.68576,0.3964 -4.41554,1.18916 l 0,-2.43518 c 1.78874,-0.72854 3.42983,-1.09281 4.92326,-1.09283 1.57291,2e-5 2.74128,0.3664 3.50511,1.09915 0.76381,0.73278 1.14572,1.84219 1.14573,3.32823 l 0,6.09426 c -1e-5,1.22707 0.33663,1.8406 1.00992,1.8406 0.0921,0 0.32926,-0.0166 0.71145,-0.0497 l 0.21082,1.74664 c -0.69329,0.3369 -1.3971,0.50535 -2.11143,0.50535 -1.2913,0 -2.07354,-0.67302 -2.34674,-2.01905 z m -0.46982,-1.68899 0,-3.12609 -0.52826,-0.0158 c -1.28076,0 -2.30397,0.23241 -3.06963,0.69723 -0.76567,0.46482 -1.1485,1.06888 -1.1485,1.81217 0,0.52483 0.17924,0.96281 0.53773,1.31392 0.35848,0.35112 0.79698,0.52668 1.3155,0.52667 0.94543,1e-5 1.90981,-0.4027 2.89316,-1.20811 z"
         inkscape:connector-curvature="0"
         style="fill:#cc002b;fill-opacity:1" />
      <path
         id="path3240"
         d="m 172.19972,254.14151 0,-13.95805 2.9966,0 0,2.52756 c 1.00017,-1.88296 2.48491,-2.82444 4.45422,-2.82446 1.2539,2e-5 2.25158,0.39733 2.99305,1.19193 0.74143,0.79463 1.11216,1.84416 1.11217,3.14859 l 0,9.91443 -2.99581,0 0,-9.12165 c -1e-5,-0.94806 -0.12634,-1.60541 -0.37901,-1.97207 -0.25269,-0.36663 -0.66566,-0.54995 -1.23891,-0.54997 -1.39079,2e-5 -2.70602,0.9186 -3.94571,2.75577 l 0,8.88792 z"
         inkscape:connector-curvature="0"
         style="fill:#cc002b;fill-opacity:1" />
      <path
         id="path3242"
         d="m 198.73715,253.63931 c -1.7856,0.54115 -3.27797,0.81173 -4.47713,0.81173 -2.0788,0 -3.76595,-0.68407 -5.06144,-2.05221 -1.2955,-1.36814 -1.94325,-3.13425 -1.94325,-5.29833 0,-2.09616 0.57497,-3.82463 1.72492,-5.18541 1.14994,-1.36076 2.62902,-2.04115 4.43725,-2.04116 1.71925,1e-5 3.04594,0.61052 3.98006,1.83151 0.93411,1.22103 1.40037,2.92173 1.39881,5.10211 l -0.0182,0.99176 -8.47654,0 c 0.33532,2.85894 1.80743,4.28841 4.41633,4.28841 0.97806,0 2.31778,-0.27242 4.01915,-0.81726 z m -8.32414,-8.17884 5.37729,0 c -1e-5,-2.16512 -0.84043,-3.24769 -2.52125,-3.2477 -1.70505,1e-5 -2.65706,1.08258 -2.85604,3.2477 z"
         inkscape:connector-curvature="0"
         style="fill:#cc002b;fill-opacity:1" />
      <path
         id="path3244"
         d="m 202.27858,253.59667 0,-2.67364 c 1.82348,0.79278 3.30348,1.18917 4.44001,1.18917 0.63116,0 1.14928,-0.16635 1.55436,-0.49904 0.40507,-0.33269 0.6076,-0.74671 0.60761,-1.24207 -1e-5,-0.72381 -0.59248,-1.33497 -1.77743,-1.83349 l -1.27207,-0.58984 c -2.31884,-0.9328 -3.47826,-2.2762 -3.47826,-4.03021 0,-1.24758 0.44389,-2.23131 1.33169,-2.95119 0.88779,-0.71985 2.08919,-1.07978 3.6042,-1.0798 0.75487,2e-5 1.7003,0.10583 2.83631,0.31743 l 0.73592,0.14371 0,2.48413 c -1.58503,-0.40427 -2.7634,-0.60641 -3.53511,-0.60642 -0.64592,1e-5 -1.15127,0.13266 -1.51607,0.39796 -0.36481,0.26533 -0.54721,0.61802 -0.5472,1.05809 -1e-5,0.6317 0.53667,1.17496 1.61003,1.62977 l 1.17652,0.49509 c 1.37709,0.58169 2.35937,1.20364 2.94685,1.86586 0.58747,0.66223 0.8812,1.48738 0.88122,2.47545 -2e-5,1.25655 -0.49537,2.28792 -1.48606,3.09411 -0.99072,0.8062 -2.24805,1.2093 -3.772,1.2093 -1.14811,0 -2.59495,-0.28479 -4.34052,-0.85437 z"
         inkscape:connector-curvature="0"
         style="fill:#cc002b;fill-opacity:1" />
      <path
         id="path3246"
         d="m 226.43058,253.63931 c -1.78559,0.54115 -3.27797,0.81173 -4.47712,0.81173 -2.07881,0 -3.76595,-0.68407 -5.06145,-2.05221 -1.29549,-1.36814 -1.94324,-3.13425 -1.94324,-5.29833 0,-2.09616 0.57497,-3.82463 1.72492,-5.18541 1.14994,-1.36076 2.62902,-2.04115 4.43725,-2.04116 1.71925,1e-5 3.04593,0.61052 3.98006,1.83151 0.9341,1.22103 1.40037,2.92173 1.3988,5.10211 l -0.0182,0.99176 -8.47653,0 c 0.33532,2.85894 1.80743,4.28841 4.41632,4.28841 0.97807,0 2.31778,-0.27242 4.01915,-0.81726 z m -8.32413,-8.17884 5.37728,0 c -1e-5,-2.16512 -0.84042,-3.24769 -2.52124,-3.2477 -1.70505,1e-5 -2.65707,1.08258 -2.85604,3.2477 z"
         inkscape:connector-curvature="0"
         style="fill:#cc002b;fill-opacity:1" />
      <path
         id="path3248"
         d="m 237.50338,253.73091 0,-3.01792 c 2.29094,0.95755 4.08469,1.43632 5.38124,1.43632 0.9428,0 1.6978,-0.2461 2.26502,-0.73829 0.56719,-0.4922 0.8508,-1.13626 0.85081,-1.9322 -1e-5,-0.66064 -0.19044,-1.22561 -0.57129,-1.69491 -0.38087,-0.46929 -1.14824,-1.03505 -2.30213,-1.69728 l -1.26338,-0.81804 c -1.50607,-0.79171 -2.59284,-1.59883 -3.26033,-2.42136 -0.66749,-0.82251 -1.00123,-1.78307 -1.00123,-2.88171 0,-1.48972 0.53996,-2.7156 1.61989,-3.67763 1.07993,-0.962 2.44952,-1.44301 4.10877,-1.44303 1.43762,2e-5 3.0208,0.25928 4.74955,0.77777 l 0,2.81183 c -2.1604,-0.7596 -3.6941,-1.1394 -4.6011,-1.13942 -0.82963,2e-5 -1.50896,0.21611 -2.038,0.64828 -0.52905,0.4322 -0.79357,0.97413 -0.79356,1.62582 -1e-5,0.55169 0.20003,1.04678 0.60011,1.48527 0.40006,0.43851 1.15178,0.9736 2.25514,1.60529 l 1.31313,0.74302 c 1.6245,0.92229 2.76457,1.80179 3.42023,2.63851 0.65563,0.83674 0.98345,1.84231 0.98346,3.01673 -1e-5,1.6682 -0.61486,3.00883 -1.84454,4.02191 -1.22971,1.01308 -2.85052,1.51962 -4.86246,1.51962 -1.27181,0 -2.94159,-0.28953 -5.00933,-0.86858 z"
         inkscape:connector-curvature="0"
         style="fill:#cc002b;fill-opacity:1" />
      <path
         id="path3250"
         d="m 259.25416,254.07597 c -0.90965,0.25005 -1.65452,0.37507 -2.23461,0.37507 -1.32341,0 -2.35715,-0.38086 -3.10122,-1.14258 -0.74409,-0.76171 -1.11613,-1.8069 -1.11613,-3.13556 l 0,-7.6506 -1.68504,0 0,-2.33884 1.68504,0 0,-2.41228 2.99581,-0.26294 0,2.67522 3.51853,0 0,2.33884 -3.51853,0 0,7.20446 c -1e-5,1.59029 0.66722,2.38544 2.00168,2.38544 0.30162,0 0.78645,-0.0537 1.45447,-0.16109 z"
         inkscape:connector-curvature="0"
         style="fill:#cc002b;fill-opacity:1" />
      <path
         id="path3252"
         d="m 270.86703,254.14151 0,-2.52677 c -1.00966,1.89087 -2.49019,2.8363 -4.44159,2.8363 -1.25865,0 -2.25962,-0.39586 -3.00291,-1.18758 -0.7433,-0.79172 -1.11494,-1.84665 -1.11494,-3.16479 l 0,-9.91521 2.9966,0 0,9.12244 c -1e-5,0.96281 0.12514,1.62582 0.37546,1.98904 0.2503,0.36323 0.6684,0.54484 1.2543,0.54484 1.3813,0 2.69232,-0.91885 3.93308,-2.75655 l 0,-8.89977 2.9966,0 0,13.95805 z"
         inkscape:connector-curvature="0"
         style="fill:#cc002b;fill-opacity:1" />
      <path
         id="path3254"
         d="m 287.21132,254.14151 0,-2.52677 c -0.69067,1.89087 -2.09276,2.8363 -4.20629,2.8363 -1.71663,0 -3.06135,-0.61827 -4.03415,-1.85481 -0.97281,-1.23654 -1.45922,-2.90736 -1.45921,-5.01249 -10e-6,-2.29145 0.54878,-4.14718 1.64635,-5.56719 1.09756,-1.41998 2.55335,-2.12997 4.36737,-2.12999 1.68029,2e-5 2.90893,0.61118 3.68593,1.83349 l 0,-7.64349 3.00843,0 0,20.06495 z m 0,-10.38425 c -1.15812,-1.02122 -2.26305,-1.53184 -3.31482,-1.53185 -1.00966,1e-5 -1.79993,0.43614 -2.37082,1.30839 -0.5709,0.87227 -0.85634,2.13961 -0.85634,3.802 0,2.97792 0.9478,4.46687 2.84341,4.46687 1.26338,0 2.49623,-0.68513 3.69857,-2.05538 z"
         inkscape:connector-curvature="0"
         style="fill:#cc002b;fill-opacity:1" />
      <path
         id="path3256"
         d="m 305.31645,253.63931 c -1.7856,0.54115 -3.27797,0.81173 -4.47713,0.81173 -2.0788,0 -3.76595,-0.68407 -5.06144,-2.05221 -1.2955,-1.36814 -1.94325,-3.13425 -1.94325,-5.29833 0,-2.09616 0.57497,-3.82463 1.72492,-5.18541 1.14994,-1.36076 2.62902,-2.04115 4.43725,-2.04116 1.71925,1e-5 3.04594,0.61052 3.98006,1.83151 0.93411,1.22103 1.40037,2.92173 1.39881,5.10211 l -0.0182,0.99176 -8.47654,0 c 0.33532,2.85894 1.80743,4.28841 4.41633,4.28841 0.97806,0 2.31778,-0.27242 4.01915,-0.81726 z m -8.32414,-8.17884 5.37729,0 c -10e-6,-2.16512 -0.84043,-3.24769 -2.52125,-3.2477 -1.70505,1e-5 -2.65706,1.08258 -2.85604,3.2477 z"
         inkscape:connector-curvature="0"
         style="fill:#cc002b;fill-opacity:1" />
      <path
         id="path3258"
         d="m 309.35295,254.14151 0,-13.95805 2.9966,0 0,2.52756 c 1.00017,-1.88296 2.48491,-2.82444 4.45422,-2.82446 1.2539,2e-5 2.25158,0.39733 2.99304,1.19193 0.74144,0.79463 1.11216,1.84416 1.11218,3.14859 l 0,9.91443 -2.99581,0 0,-9.12165 c -1e-5,-0.94806 -0.12635,-1.60541 -0.37901,-1.97207 -0.25269,-0.36663 -0.66566,-0.54995 -1.23891,-0.54997 -1.39079,2e-5 -2.70602,0.9186 -3.94571,2.75577 l 0,8.88792 z"
         inkscape:connector-curvature="0"
         style="fill:#cc002b;fill-opacity:1" />
      <path
         id="path3260"
         d="m 332.02522,254.07597 c -0.90965,0.25005 -1.65452,0.37507 -2.23462,0.37507 -1.3234,0 -2.35714,-0.38086 -3.10122,-1.14258 -0.74408,-0.76171 -1.11612,-1.8069 -1.11612,-3.13556 l 0,-7.6506 -1.68504,0 0,-2.33884 1.68504,0 0,-2.41228 2.99581,-0.26294 0,2.67522 3.51853,0 0,2.33884 -3.51853,0 0,7.20446 c -1e-5,1.59029 0.66722,2.38544 2.00167,2.38544 0.30163,0 0.78645,-0.0537 1.45448,-0.16109 z"
         inkscape:connector-curvature="0"
         style="fill:#cc002b;fill-opacity:1" />
      <path
         id="path3262"
         d="m 341.23531,254.14151 7.35212,-18.83867 2.96659,0 7.24473,18.83867 -3.28796,0 -1.99457,-5.07881 -7.37502,0 -2.01905,5.07881 z m 5.74604,-7.51636 5.69946,0 -2.84578,-7.39792 z"
         inkscape:connector-curvature="0"
         style="fill:#cc002b;fill-opacity:1" />
      <path
         id="path3264"
         d="m 360.85887,253.59667 0,-2.67364 c 1.82348,0.79278 3.30349,1.18917 4.44001,1.18917 0.63116,0 1.14928,-0.16635 1.55436,-0.49904 0.40507,-0.33269 0.6076,-0.74671 0.60761,-1.24207 -10e-6,-0.72381 -0.59248,-1.33497 -1.77742,-1.83349 l -1.27208,-0.58984 c -2.31884,-0.9328 -3.47826,-2.2762 -3.47826,-4.03021 0,-1.24758 0.4439,-2.23131 1.33169,-2.95119 0.88779,-0.71985 2.08919,-1.07978 3.60421,-1.0798 0.75486,2e-5 1.70029,0.10583 2.8363,0.31743 l 0.73592,0.14371 0,2.48413 c -1.58503,-0.40427 -2.7634,-0.60641 -3.53511,-0.60642 -0.64592,1e-5 -1.15127,0.13266 -1.51607,0.39796 -0.3648,0.26533 -0.54721,0.61802 -0.5472,1.05809 -10e-6,0.6317 0.53667,1.17496 1.61003,1.62977 l 1.17653,0.49509 c 1.37708,0.58169 2.35936,1.20364 2.94684,1.86586 0.58747,0.66223 0.88121,1.48738 0.88122,2.47545 -10e-6,1.25655 -0.49537,2.28792 -1.48606,3.09411 -0.99072,0.8062 -2.24805,1.2093 -3.772,1.2093 -1.14811,0 -2.59495,-0.28479 -4.34052,-0.85437 z"
         inkscape:connector-curvature="0"
         style="fill:#cc002b;fill-opacity:1" />
      <path
         id="path3266"
         d="m 374.09913,253.59667 0,-2.67364 c 1.82349,0.79278 3.30349,1.18917 4.44002,1.18917 0.63116,0 1.14928,-0.16635 1.55436,-0.49904 0.40506,-0.33269 0.6076,-0.74671 0.60761,-1.24207 -10e-6,-0.72381 -0.59249,-1.33497 -1.77743,-1.83349 l -1.27207,-0.58984 c -2.31885,-0.9328 -3.47827,-2.2762 -3.47826,-4.03021 -10e-6,-1.24758 0.44389,-2.23131 1.33169,-2.95119 0.88778,-0.71985 2.08918,-1.07978 3.6042,-1.0798 0.75487,2e-5 1.7003,0.10583 2.8363,0.31743 l 0.73593,0.14371 0,2.48413 c -1.58504,-0.40427 -2.76341,-0.60641 -3.53512,-0.60642 -0.64591,1e-5 -1.15126,0.13266 -1.51606,0.39796 -0.36481,0.26533 -0.54721,0.61802 -0.54721,1.05809 0,0.6317 0.53667,1.17496 1.61003,1.62977 l 1.17653,0.49509 c 1.37708,0.58169 2.35936,1.20364 2.94685,1.86586 0.58746,0.66223 0.8812,1.48738 0.88121,2.47545 -10e-6,1.25655 -0.49536,2.28792 -1.48606,3.09411 -0.99071,0.8062 -2.24804,1.2093 -3.77199,1.2093 -1.14811,0 -2.59495,-0.28479 -4.34053,-0.85437 z"
         inkscape:connector-curvature="0"
         style="fill:#cc002b;fill-opacity:1" />
      <path
         id="path3268"
         d="m 393.46369,254.45104 c -2.06459,0 -3.69646,-0.65749 -4.89562,-1.97246 -1.19916,-1.31497 -1.79875,-3.08687 -1.79874,-5.3157 -1e-5,-2.22618 0.60023,-3.99545 1.80072,-5.3078 1.20047,-1.31233 2.83169,-1.9685 4.89364,-1.96852 2.05984,2e-5 3.69066,0.65685 4.89247,1.97049 1.20178,1.31367 1.80268,3.08228 1.80269,5.30583 -10e-6,2.22567 -0.60025,3.99678 -1.80072,5.31333 -1.20049,1.31655 -2.83197,1.97483 -4.89444,1.97483 z m 0,-2.33884 c 1.11599,0 1.98667,-0.42455 2.61206,-1.27366 0.62536,-0.84909 0.93805,-2.07431 0.93806,-3.67566 -10e-6,-1.59607 -0.31362,-2.818 -0.94083,-3.6658 -0.62723,-0.84777 -1.49699,-1.27166 -2.60929,-1.27167 -1.11652,1e-5 -1.9851,0.42232 -2.60573,1.26694 -0.62064,0.84463 -0.93096,2.06814 -0.93096,3.67053 0,1.60503 0.30992,2.83117 0.92978,3.67843 0.61984,0.84726 1.48881,1.27089 2.60691,1.27089 z"
         inkscape:connector-curvature="0"
         style="fill:#cc002b;fill-opacity:1" />
      <path
         id="path3270"
         d="m 413.69999,253.66379 c -1.72769,0.52483 -3.18295,0.78725 -4.36579,0.78725 -1.90667,0 -3.48261,-0.69986 -4.72783,-2.09959 -1.24523,-1.39972 -1.86784,-3.15399 -1.86784,-5.26279 0,-2.25093 0.6184,-4.01401 1.85521,-5.28925 1.2368,-1.27522 2.95724,-1.91283 5.16133,-1.91285 1.06334,2e-5 2.32883,0.16347 3.79647,0.49035 l 0,2.49203 c -1.6003,-0.40427 -2.81604,-0.60641 -3.64724,-0.60642 -1.16179,1e-5 -2.09551,0.43996 -2.80116,1.31984 -0.70566,0.87991 -1.05849,2.07341 -1.05848,3.58052 -1e-5,1.45764 0.36414,2.62429 1.09243,3.49997 0.72829,0.87569 1.67543,1.31353 2.84144,1.31353 1.07176,0 2.31225,-0.28505 3.72146,-0.85515 z"
         inkscape:connector-curvature="0"
         style="fill:#cc002b;fill-opacity:1" />
      <path
         id="path3272"
         d="m 417.09456,254.14151 0,-13.95805 2.99659,0 0,13.95805 z m 0,-15.89261 0,-2.94606 2.99659,0 0,2.94606 z"
         inkscape:connector-curvature="0"
         style="fill:#cc002b;fill-opacity:1" />
      <path
         id="path3274"
         d="m 431.67246,252.43199 c -1.27129,1.34603 -2.62364,2.01905 -4.05705,2.01905 -1.19759,0 -2.18948,-0.37323 -2.97567,-1.11968 -0.7862,-0.74645 -1.17929,-1.68793 -1.17929,-2.82445 0,-1.55554 0.64959,-2.74826 1.94877,-3.57815 1.29918,-0.82988 3.13293,-1.24482 5.50126,-1.24483 l 0.29216,0 0,-1.36999 c -10e-6,-1.39234 -0.72093,-2.08852 -2.16276,-2.08853 -1.21391,1e-5 -2.68575,0.3964 -4.41554,1.18916 l 0,-2.43518 c 1.78874,-0.72854 3.42983,-1.09281 4.92326,-1.09283 1.57291,2e-5 2.74128,0.3664 3.50511,1.09915 0.76381,0.73278 1.14572,1.84219 1.14573,3.32823 l 0,6.09426 c -1e-5,1.22707 0.33663,1.8406 1.00992,1.8406 0.0921,0 0.32926,-0.0166 0.71145,-0.0497 l 0.21083,1.74664 c -0.6933,0.3369 -1.39711,0.50535 -2.11144,0.50535 -1.2913,0 -2.07354,-0.67302 -2.34674,-2.01905 z m -0.46982,-1.68899 0,-3.12609 -0.52825,-0.0158 c -1.28077,0 -2.30398,0.23241 -3.06964,0.69723 -0.76567,0.46482 -1.1485,1.06888 -1.1485,1.81217 0,0.52483 0.17924,0.96281 0.53773,1.31392 0.35848,0.35112 0.79698,0.52668 1.3155,0.52667 0.94543,1e-5 1.90982,-0.4027 2.89316,-1.20811 z"
         inkscape:connector-curvature="0"
         style="fill:#cc002b;fill-opacity:1" />
      <path
         id="path3276"
         d="m 445.52787,254.07597 c -0.90964,0.25005 -1.65451,0.37507 -2.23461,0.37507 -1.3234,0 -2.35714,-0.38086 -3.10122,-1.14258 -0.74409,-0.76171 -1.11613,-1.8069 -1.11612,-3.13556 l 0,-7.6506 -1.68505,0 0,-2.33884 1.68505,0 0,-2.41228 2.9958,-0.26294 0,2.67522 3.51853,0 0,2.33884 -3.51853,0 0,7.20446 c 0,1.59029 0.66722,2.38544 2.00168,2.38544 0.30163,0 0.78645,-0.0537 1.45447,-0.16109 z"
         inkscape:connector-curvature="0"
         style="fill:#cc002b;fill-opacity:1" />
      <path
         id="path3278"
         d="m 448.72975,254.14151 0,-13.95805 2.9966,0 0,13.95805 z m 0,-15.89261 0,-2.94606 2.9966,0 0,2.94606 z"
         inkscape:connector-curvature="0"
         style="fill:#cc002b;fill-opacity:1" />
      <path
         id="path3280"
         d="m 461.88871,254.45104 c -2.06459,0 -3.69646,-0.65749 -4.89562,-1.97246 -1.19917,-1.31497 -1.79875,-3.08687 -1.79875,-5.3157 0,-2.22618 0.60024,-3.99545 1.80072,-5.3078 1.20048,-1.31233 2.83169,-1.9685 4.89365,-1.96852 2.05984,2e-5 3.69066,0.65685 4.89247,1.97049 1.20178,1.31367 1.80268,3.08228 1.80269,5.30583 -10e-6,2.22567 -0.60025,3.99678 -1.80072,5.31333 -1.20049,1.31655 -2.83197,1.97483 -4.89444,1.97483 z m 0,-2.33884 c 1.11598,0 1.98667,-0.42455 2.61205,-1.27366 0.62537,-0.84909 0.93806,-2.07431 0.93807,-3.67566 -10e-6,-1.59607 -0.31362,-2.818 -0.94083,-3.6658 -0.62723,-0.84777 -1.49699,-1.27166 -2.60929,-1.27167 -1.11652,1e-5 -1.9851,0.42232 -2.60573,1.26694 -0.62065,0.84463 -0.93096,2.06814 -0.93096,3.67053 0,1.60503 0.30992,2.83117 0.92977,3.67843 0.61985,0.84726 1.48882,1.27089 2.60692,1.27089 z"
         inkscape:connector-curvature="0"
         style="fill:#cc002b;fill-opacity:1" />
      <path
         id="path3282"
         d="m 472.22874,254.14151 0,-13.95805 2.9966,0 0,2.52756 c 1.00017,-1.88296 2.48491,-2.82444 4.45423,-2.82446 1.2539,2e-5 2.25158,0.39733 2.99304,1.19193 0.74143,0.79463 1.11216,1.84416 1.11217,3.14859 l 0,9.91443 -2.9958,0 0,-9.12165 c -10e-6,-0.94806 -0.12635,-1.60541 -0.37902,-1.97207 -0.25269,-0.36663 -0.66566,-0.54995 -1.23891,-0.54997 -1.39078,2e-5 -2.70602,0.9186 -3.94571,2.75577 l 0,8.88792 z"
         inkscape:connector-curvature="0"
         style="fill:#cc002b;fill-opacity:1" />
    </g>
  </g>
  <g
     id="g3564"
     transform="translate(1.066588,1)"
     style="fill:#cc002b;fill-opacity:1">
    <path
       sodipodi:nodetypes="ccccccssccscccscccccccsccccccccscccsscccsscccccsccccccsccccssssccssccccccccccccscccccccscccsccsscccccccccsccsc"
       inkscape:connector-curvature="0"
       id="path3432"
       d="M 199.03125,0 198.5,37.5 c 5e-4,0 -10.19527,0.02048 -13.40625,0.125 -3.99284,0.02516 -3.84967,2.896973 -2.46875,5.71875 2.60787,5.637811 5.26387,11.253292 7.90625,16.875 -7.70727,0.227123 -15.47708,0.06514 -23.1875,0.09375 -4.2052,0.05063 -2.2861,2.810931 0.4375,5.84375 2.7236,3.032819 9.19659,11.596949 10.875,13.40625 1.67841,1.809301 4.39402,4.914559 0.0625,4.65625 -2.33994,-0.169215 -6.62209,0.02531 -10.375,0.03125 -3.75291,0.0059 -4.56412,1.676458 -2.125,4.03125 2.43912,2.354793 11.1875,11.59375 11.1875,11.59375 2.51418,2.67055 1.84983,2.66804 -0.28125,2.65625 -6.22419,-0.0186 -7.79203,-0.0306 -9.5625,0.0312 -1.77047,0.062 -4.1814,0.58681 -1.4375,3.4375 2.74391,2.85069 13.03125,12.9375 13.03125,12.9375 3.44308,2.96081 1.48427,3.2221 -1.15625,3 -5.53824,0.0178 -8.27354,0.0524 -10.9375,0.1875 -2.66397,0.13528 -3.21413,1.10213 0.34375,4.0625 l 14.5,14.21875 c 1.60684,1.54426 1.45786,1.61412 -0.875,1.625 -3.6201,-0.0958 -7.25426,-0.0482 -10.875,-0.0312 -2.27912,-0.007 -2.37683,3.22151 -0.3125,5.28125 5.64912,5.63657 13.29799,14.17533 15.125,15.96875 0.9409,0.9415 0.85945,2.40633 0.5,3.3125 -2.11844,5.15741 -10.02496,22.65905 -14.46875,32.1875 -2.33217,4.26106 -2.55237,7.16025 0.90625,7.40625 5.98473,-0.0291 15.29017,-0.0619 21.0625,-0.0937 2.51428,-0.005 2.43073,-6.39784 0.21875,-6.46875 -2.63495,-0.0221 -9.46495,-0.1297 -13.59375,0.0312 -1.31785,8.7e-4 -1.95311,-0.70113 -1.4375,-1.875 0,0 12.74501,-28.584 13.46875,-29.84375 0.72374,-1.25975 1.5257,-3.02308 0.0312,-5.28125 -0.77802,-1.16614 -7.8048,-8.54375 -10.875,-11.84375 -1.17326,-1.7044 -3.15082,-3.17724 -0.71875,-3.125 3.62715,-0.1525 8.01566,-0.19587 11.4375,-0.15625 3.42184,0.0396 1.79458,-3.72472 0.5625,-5 -1.23208,-1.27528 -11.21875,-11.34375 -11.21875,-11.34375 -3.21669,-2.86574 -1.8703,-3.75679 0.53125,-3.53125 0,0 7.88813,-0.17226 10.125,-0.125 2.23687,0.0473 1.7787,-2.51337 0.5625,-4 -1.2162,-1.48664 -9.43656,-8.84133 -12.90625,-12.28125 -3.46968,-3.43994 -2.00494,-3.10767 0.0937,-3.125 2.09877,-0.0173 8.7125,-0.0611 10.15625,-0.0937 2.17325,0.33715 3.33656,-2.06797 2.46875,-3.03125 -4.96273,-4.9612 -8.26548,-8.173014 -13.21875,-13.5 -0.56416,-0.654464 -1.06175,-1.594496 2.21875,-1.5625 0,0 6.85592,0.04644 9.0625,0.09375 2.20658,0.04731 3.29466,-2.335184 2.0625,-3.84375 -3.64477,-4.561465 -10.45261,-12.415018 -13.96875,-16.3125 -4.13607,-4.032608 -2.18395,-3.697228 1.46875,-3.78125 16.65356,-0.103235 30.90644,-0.140369 47.8125,0 3.6527,0.08402 5.60482,-0.25136 1.46875,3.78125 -3.51614,3.89748 -10.32398,11.75103 -13.96875,16.3125 -1.23216,1.50856 -0.14408,3.89105 2.0625,3.84375 2.20658,-0.0473 9.0625,-0.09375 9.0625,-0.09375 3.2805,-0.032 2.78291,0.87679 2.21875,1.53125 -4.95327,5.326992 -8.25602,8.538807 -13.21875,13.5 -0.86781,0.96328 0.2955,3.3684 2.46875,3.03125 1.44375,0.0326 8.05748,0.0764 10.15625,0.0937 2.09869,0.0173 3.56348,-0.31494 0.0937,3.125 -3.46969,3.43992 -11.69005,10.79461 -12.90625,12.28125 -1.2162,1.48663 -1.67437,4.0473 0.5625,4 2.23687,-0.0473 10.125,0.125 10.125,0.125 2.40155,-0.22554 3.74794,0.66551 0.53125,3.53125 0,0 -9.98667,10.06847 -11.21875,11.34375 -1.23208,1.27528 -2.85934,5.0396 0.5625,5 3.42184,-0.0396 7.81035,0.004 11.4375,0.15625 2.43207,-0.0522 0.45451,1.4206 -0.71875,3.125 -3.0702,3.3 -10.09698,10.67761 -10.875,11.84375 -1.49445,2.25817 -0.69244,4.0215 0.0312,5.28125 0.72374,1.25975 13.46875,29.84375 13.46875,29.84375 0.51561,1.17387 -0.11965,1.87587 -1.4375,1.875 -4.1288,-0.16095 -10.9588,-0.0533 -13.59375,-0.0312 -2.21198,0.0709 -2.29553,6.46375 0.21875,6.46875 5.77233,0.0318 15.07777,0.0648 21.0625,0.0937 3.45862,-0.246 3.23842,-3.14519 0.90625,-7.40625 -4.44379,-9.52845 -12.35031,-27.03009 -14.46875,-32.1875 -0.35945,-0.90617 -0.4409,-2.371 0.5,-3.3125 1.82701,-1.79342 9.47588,-10.33218 15.125,-15.96875 2.06433,-2.05974 1.96662,-5.28825 -0.3125,-5.28125 -3.62074,-0.017 -7.2549,-0.0644 -10.875,0.0312 -2.33286,-0.0109 -2.48184,-0.0807 -0.875,-1.625 l 14.46895,-14.2187 c 3.55788,-2.96037 3.00772,-3.92722 0.34375,-4.0625 -2.66396,-0.1351 -5.36801,-0.1697 -10.90625,-0.1875 -2.64052,0.2221 -4.59933,-0.0392 -1.15625,-3 0,0 10.28734,-10.08681 13.03125,-12.9375 2.7439,-2.85069 0.33297,-3.3755 -1.4375,-3.4375 -1.77047,-0.0618 -3.33831,-0.0499 -9.5625,-0.0312 -2.13108,0.0118 -2.79543,0.0143 -0.28125,-2.65625 0,0 8.74838,-9.23896 11.1875,-11.59375 2.43912,-2.3548 1.62791,-4.02525 -2.125,-4.03125 -3.75291,-0.0058 -8.03506,-0.20046 -10.375,-0.03125 -4.33152,0.25831 -1.61591,-2.84695 0.0625,-4.65625 1.67841,-1.8093 8.1514,-10.37343 10.875,-13.40625 2.7236,-3.03282 4.6427,-5.79315 0.4375,-5.84375 -7.71042,-0.0286 -15.48023,0.16462 -23.1875,-0.0625 2.64238,-5.621709 5.29838,-11.23719 7.90625,-16.875 1.38092,-2.82178 1.52409,-5.69359 -2.46875,-5.71875 C 215.8345,37.464883 210.55382,37.494728 204.5,37.50005 L 203.03125,0 z M 191.125,43.25 c 8.15698,-0.01191 15.19644,0.01387 23.375,0 1.73797,-0.004 3.04224,-0.22187 1.875,2.34375 -1.16724,2.56562 -4.50141,9.492411 -6.6875,14.40625 -4.4049,0 -8.15641,0 -12.5625,0 -2.18609,-4.913837 -5.52026,-11.840626 -6.6875,-14.40625 -0.87543,-1.924218 -0.35782,-2.286447 0.6875,-2.34375 z"
       style="fill:#cc002b;fill-opacity:1" />
    <path
       id="path3428"
       d="m 299.21875,107.09375 c -2.67016,-0.002 -5.38644,0.18725 -8.0625,0.625 -8.38757,1.09549 -13.64287,2.57079 -19.125,9.09375 -4.67411,5.79705 -5.97963,10.30352 -6.125,16.90625 0.008,7.72519 1.62767,12.11092 5.96875,16.65625 5.56519,5.82703 11.80894,9.33317 22,13.5625 9.73259,4.03906 13.30166,5.47127 15.71875,9.75 5.05519,8.94868 -2.24627,18.375 -13.875,18.375 -4.70627,0 -17.48895,-1.74216 -22.625,-4.5 -2.16523,-1.08922 -4.6536,-1.98049 -7.09375,-2.6875 l 0,15.71875 c 8.12993,3.80235 18.33225,5.9335 28.5,5.875 14.61728,0.35356 28.02297,-4.25079 33.53125,-17.71875 1.86824,-5.17202 4.73263,-13.93608 0.15625,-22.875 -4.2926,-8.17571 -9.47359,-10.60532 -26.40625,-18.6875 -9.1902,-4.3866 -14.94247,-7.27196 -16.875,-11.9375 -2.07437,-3.79757 -0.23908,-10.10121 6.03125,-12.40625 11.62474,-3.05317 19.47954,0.52824 30.34375,2.15625 1.44811,-4.01225 0.007,-9.83669 0.21875,-14.34375 -6.4857,-1.81873 -14.27078,-3.55546 -22.28125,-3.5625 z"
       style="fill:#cc002b;fill-opacity:1"
       inkscape:connector-curvature="0" />
    <path
       id="path3426"
       d="m 107.25,108.34375 c -8.745353,0.0675 -16.890483,1.54722 -22.093753,4.71875 -12.215003,7.4424 -21.238297,17.15262 -21.999997,45.53125 0.526523,16.8288 4.930238,32.43523 22.812497,42.09375 C 103.37041,209.58216 121.9295,204.65096 134,199.75 l 0,-7.40625 0,-7.53125 c -10.40079,5.29688 -21.01342,7.67361 -33.65625,3.875 -10.857563,-4.89371 -17.724683,-17.0334 -17.156253,-29.3125 -0.54627,-12.3168 1.77751,-25.83027 14.125,-33.53125 C 106.88331,121.73735 120.70258,123.44336 133,126 l 0,-13.84375 c -7.66132,-2.54127 -17.00465,-3.88 -25.75,-3.8125 z"
       style="fill:#cc002b;fill-opacity:1"
       inkscape:connector-curvature="0" />
    <path
       id="path3424"
       d="m 390.59375,111.375 c -11.34883,0.11039 -20.33009,3.03774 -29.59375,7.09375 0,5.23372 0.024,9.75382 0.0937,14.625 11.01733,-5.23209 16.9465,-6.54636 25.125,-7.0625 7.65525,-0.48311 11.82504,-0.17462 17.5,5.875 2.72391,6.59853 2.1179,12.17344 2.28125,18.96875 l 0,15.5625 c -3.06763,-6.63958 -10.46717,-8.60944 -15.875,-8.375 -2.46109,-9.50107 -5.9519,-15.98509 -13.0625,-16.21875 -7.1106,-0.23366 -10.8658,8.43757 -12.4375,14.78125 -14.79105,-3.07107 -19.76102,3.76829 -19.375,10.03125 0.38601,6.26297 5.63759,9.96839 10.78125,12.625 -4.46257,6.56548 -8.3384,14.03448 -3.03125,19.65625 5.30715,5.62177 15.51335,1.0315 19.78125,-1.875 6.17791,5.96645 15.45551,8.33195 20.09375,5.625 4.63824,-2.70695 2.86053,-15.61808 -0.0312,-19.59375 5.30477,-1.61231 11.7438,-5.36139 13.375,-10.5625 L 406,183.375 c -0.14924,6.95169 -0.72731,13.49768 3.40625,18.625 4.13357,5.12733 8.24699,6.44827 15.5625,6.09375 3.56997,-0.0255 6.59783,0.26217 10.9375,-1.53125 l 0.3125,-11.5 C 426.42887,196.3052 423.9715,188.92376 423.9375,186 l -0.0625,-52.21875 c 0,0 -0.82684,-8.60234 -5.3125,-13.46875 -4.48566,-4.86641 -11.45167,-9.17249 -25.65625,-8.9375 -0.77847,-0.0184 -1.55591,-0.007 -2.3125,0 z m -13.625,32.75 c 7.19219,0.0951 10.34376,11.47895 10.34375,16.9375 6.89865,-0.56996 16.55079,0.70071 16.28125,10.28125 0.10376,4.17743 -7.20512,8.6747 -13.6875,10.5 3.10225,5.99921 5.54957,16.49731 1.84375,18.90625 -5.0993,3.31476 -14.30433,-2.00268 -18.5,-6.46875 -6.54481,4.38907 -12.74519,7.72637 -18.375,3.15625 -5.6298,-4.57011 1.35355,-14.58242 4.53125,-18.65625 -4.78851,-3.00841 -12.6687,-5.59902 -11.5,-13.5625 1.16871,-7.96348 10.54888,-8.10214 18.5,-5.84375 1.75317,-4.73889 3.37031,-15.34511 10.5625,-15.25 z M 376.75,158.90625 c -1.24304,0 -2.25,1.00696 -2.25,2.25 0,0.62152 0.47694,1.20806 0.53125,1.78125 0.11892,1.25501 -1.12703,4.46688 -1.21875,6.90625 -2.32833,0.7505 -2.85485,1.66678 -3.625,2.9375 -2.44057,-0.95835 -5.75809,-1.55436 -6.8125,-3.4375 -0.16464,-1.2156 -0.97571,-1.875 -2.21875,-1.875 -1.24304,0 -2.28125,1.00696 -2.28125,2.25 0,1.24304 1.03821,2.25 2.28125,2.25 2.46432,0.28691 5.94658,2.64127 8.5625,3.34375 0.36661,1.16789 0.75335,1.7543 1.46875,2.40625 -1.6933,2.00988 -4.33548,5.37083 -5.4375,5.5625 l -0.78125,0.125 L 364,183.75 c -0.77191,0.35648 -1.3125,1.12487 -1.3125,2.03125 0,1.24304 1.00696,2.25 2.25,2.25 1.24304,0 2.25,-1.00696 2.25,-2.25 0.0499,-0.93276 1.16891,-2.0137 1.8125,-2.78125 l 3.90625,-4.28125 c 1.58054,0.72419 4.06968,0.70809 5.1875,0.40625 l 1.625,2.625 c 1.5511,2.32152 2.19531,3.59858 2.21875,6.03125 0,1.24304 1.00696,2.25 2.25,2.25 1.24304,0 2.25,-1.00696 2.25,-2.25 -0.43654,-2.68605 -1.69514,-1.04336 -3.5,-4.21875 0,0 -1.74722,-3.32362 -3.125,-4.9375 1.85511,-1.20299 2.57346,-2.59503 2.6875,-4.65625 l 5.6875,-0.1875 c 2.13845,-0.0959 1.64476,0.73412 3.59375,0.8125 0.0103,1.4e-4 0.021,0 0.0312,0 1.24304,0 2.25,-1.00696 2.25,-2.25 0,-1.24304 -1.00696,-2.25 -2.25,-2.25 -1.69267,0.0573 -1.01172,0.81401 -3.375,1.25 -2.20163,0.0924 -4.89913,0.16223 -6.46875,0.1875 -2.14863,-1.66979 -4.1201,-1.64591 -5.25,-1.8125 -0.28729,-2.87363 0.16143,-5.52365 0.96875,-6.375 0.7577,-0.36196 1.3125,-1.29148 1.3125,-2.1875 0,-1.24304 -1.00696,-2.25 -2.25,-2.25 z M 376.5625,173 c 3.653,0.0196 2.73556,3.12248 0.0937,3.09375 -1.47542,0.0823 -2.61703,-0.0104 -2.96875,-0.71875 -1.13344,-1.13346 0.36579,-2.375 2.875,-2.375 z"
       style="fill:#cc002b;fill-opacity:1"
       inkscape:connector-curvature="0" />
    <path
       id="path3416"
       d="m 456.34375,210.90625 c -134.25768,0.3106 -275.71997,0.0542 -414.125,0.0937 -3.197183,0.0204 -3.448713,8.9758 0,8.9375 138.25903,0.0519 275.74096,0.0935 414,0.0625 3.02684,-0.0436 2.73794,-9.09175 0.125,-9.09375 z"
       style="fill:#cc002b;fill-opacity:1"
       inkscape:connector-curvature="0" />
  </g>
  <g
     style="font-size:24px;font-style:normal;font-variant:normal;font-weight:normal;font-stretch:normal;line-height:125%;letter-spacing:0px;word-spacing:0px;fill:#cc002b;fill-opacity:1;stroke:none;font-family:Lucida Sans Unicode;-inkscape-font-specification:Lucida Sans Unicode"
     id="text5680">
    <path
       d="m 46.886406,276.33105 -5.541993,0 0,6.15235 -12.695312,0 0,14.11133 c -2.9e-5,1.39974 -0.349963,2.39257 -1.049805,2.97851 -0.699897,0.58594 -1.456732,0.90739 -2.270508,0.96436 -0.813826,0.057 -2.213565,0.0854 -4.199218,0.0854 l -1.049805,-2.63672 c 0.667297,0.0488 1.47296,0.0732 2.416992,0.0732 1.611304,0 2.596004,-0.0692 2.954102,-0.20752 0.358047,-0.13835 0.537083,-0.42724 0.537109,-0.8667 l 0,-14.50195 -11.450195,0 0,-2.39258 11.450195,0 0,-3.75977 -15.600586,0 c -0.01629,11.11655 -1.5625089,19.23015 -4.6386717,24.34082 l -2.2460937,-1.58691 c 2.8320247,-4.96419 4.2480389,-11.66177 4.2480468,-20.09277 l 0,-18.06641 17.7978516,0 c -0.374374,-0.9928 -0.944035,-2.0426 -1.708984,-3.14941 l 2.441406,-1.09864 c 1.041639,1.74158 1.765922,3.15759 2.172851,4.24805 l 17.749024,0 0,2.56348 -17.553711,0 0,4.29687 12.695312,0 0,6.05469 5.541993,0 z m -20.898438,-2.49023 0,-3.56445 -11.450195,0 0,-2.49024 11.450195,0 0,-4.29687 -15.600586,0 0,10.35156 z m 12.792969,0 0,-3.56445 -10.131836,0 0,3.56445 z m 0,6.25 0,-3.75977 -10.131836,0 0,3.75977 z m -16.52832,7.83691 -1.660157,2.05079 c -2.783221,-1.87174 -5.330419,-3.23893 -7.641601,-4.10157 l 1.586914,-2.00195 c 2.766909,1.0254 5.338521,2.37631 7.714844,4.05273 z m 20.67871,-1.90429 c -2.799519,1.61134 -5.932654,2.97852 -9.399414,4.10156 l -1.342773,-2.19727 c 3.369105,-1.12303 6.469688,-2.44139 9.301758,-3.95507 z m 1.611329,11.86523 -1.611329,2.05078 c -3.20642,-2.40885 -6.770869,-4.55729 -10.693359,-6.44531 l 1.342774,-2.09961 c 4.052696,1.9043 7.706664,4.06901 10.961914,6.49414 z M 22.93621,293.64062 c -3.938821,2.44141 -7.552099,4.43523 -10.839843,5.98145 l -1.293946,-2.19727 c 3.531887,-1.64387 7.08006,-3.65396 10.644531,-6.03027 z"
       style="font-size:50px;text-align:start;line-height:125%;writing-mode:lr-tb;text-anchor:start;fill:#cc002b;font-family:Microsoft JhengHei;-inkscape-font-specification:Microsoft JhengHei"
       id="path5691" />
    <path
       d="m 95.299492,274.47559 c -0.179082,5.306 -0.634811,10.12778 -1.367188,14.46533 -0.732465,4.33757 -1.440472,7.10856 -2.124023,8.31299 -0.683635,1.20442 -1.550334,2.0996 -2.600098,2.68554 -1.049843,0.58594 -3.226761,0.87891 -6.530762,0.87891 -1.464875,0 -3.141306,-0.0651 -5.029297,-0.19531 l -0.659179,-2.83203 c 2.197236,0.29296 4.313119,0.43945 6.347656,0.43945 1.806605,0 3.124963,-0.0855 3.955078,-0.25635 0.83004,-0.1709 1.546185,-0.7487 2.148438,-1.7334 0.602173,-0.9847 1.236938,-3.3732 1.904296,-7.16552 0.667276,-3.79231 1.066039,-7.75552 1.196289,-11.88965 l -11.450195,0 c 1.904264,-6.10349 3.222622,-11.57224 3.955078,-16.40625 l -16.113281,0 c 0.358053,16.4551 -4.191096,29.82585 -13.647461,40.1123 l -2.050781,-1.9043 c 9.098295,-9.5052 13.435855,-22.24118 13.012695,-38.208 l -10.009765,0 0,-2.68555 32.006835,0 c -0.585975,4.73636 -1.790401,10.19697 -3.613281,16.38184 z"
       style="font-size:50px;text-align:start;line-height:125%;writing-mode:lr-tb;text-anchor:start;fill:#cc002b;font-family:Microsoft JhengHei;-inkscape-font-specification:Microsoft JhengHei"
       id="path5693" />
    <path
       d="m 147.08172,266.98047 -1.34278,2.24609 -3.29589,-1.24511 0,29.15039 c -5e-5,0.92773 -0.28081,1.75374 -0.84229,2.47802 -0.56156,0.72428 -1.81889,1.08643 -3.77197,1.08643 -0.76501,0 -1.7253,-0.0244 -2.88086,-0.0732 l -0.75684,-2.68555 c 1.75778,0.13021 3.25517,0.19531 4.49219,0.19531 0.87887,0 1.31832,-0.43131 1.31836,-1.29394 l 0,-27.05078 -13.50098,0 0,30.29785 -2.51465,0 0,-30.29785 -13.79394,0 0,30.78613 -2.44141,0 0,-32.59277 c -1.18815,0.45575 -2.09147,0.78941 -2.70996,1.00097 l -1.53808,-2.09961 c 4.60611,-1.56246 8.50422,-3.45862 11.69433,-5.68847 l 2.14844,1.3916 c -2.27866,1.7904 -4.98048,3.36917 -8.10547,4.73633 l 14.74609,0 0,-6.73829 -18.94531,0 0,-2.4414 40.40528,0 0,2.4414 -18.94532,0 0,6.73829 14.55078,0 c -3.10876,-1.43226 -5.5583,-2.86455 -7.34863,-4.29688 l 1.87988,-1.7334 c 2.71807,2.11592 6.55107,4.01208 11.49903,5.68848 z m -8.44727,13.79394 -1.7334,1.80664 c -0.79756,-1.17185 -1.90433,-2.44138 -3.32031,-3.80859 -0.89521,1.33465 -2.18916,2.79136 -3.88183,4.37012 l -1.95313,-1.5625 c 1.6764,-1.39972 3.04359,-2.81574 4.10156,-4.24805 -1.12307,-1.00909 -2.18915,-1.85544 -3.19824,-2.53906 l 1.34277,-1.80664 c 0.84633,0.4883 1.89613,1.26955 3.14942,2.34375 0.69983,-1.20441 1.30205,-2.44952 1.80664,-3.73535 l 2.19726,0.68359 c -0.76501,1.83922 -1.49743,3.3773 -2.19726,4.61426 1.13929,0.97658 2.36813,2.27052 3.68652,3.88183 z m -16.13769,-0.0976 -1.51367,1.85547 c -1.33466,-1.48111 -2.40074,-2.57974 -3.19825,-3.2959 -1.28582,1.6439 -2.48211,2.91343 -3.58886,3.80859 l -1.85547,-1.61133 c 1.25324,-1.00909 2.45766,-2.27862 3.61328,-3.80859 -1.46486,-1.33461 -2.76694,-2.38442 -3.90625,-3.14941 l 1.24512,-1.68457 c 1.04165,0.63479 2.37628,1.59507 4.0039,2.88085 0.81379,-1.31833 1.46483,-2.64483 1.95313,-3.97949 l 2.14843,0.73242 c -0.47202,1.43232 -1.237,3.03551 -2.29492,4.80957 1.28579,1.13935 2.41697,2.28681 3.39356,3.44239 z m 0,12.40234 -1.75782,1.70899 c -1.15561,-1.51367 -2.27052,-2.75065 -3.34472,-3.71094 -1.18817,1.69271 -2.47398,3.10873 -3.85742,4.24805 l -1.80664,-1.68458 c 1.75779,-1.56249 3.09243,-2.96223 4.0039,-4.19921 -0.87892,-0.86262 -2.24611,-1.94498 -4.10156,-3.24707 l 1.36719,-1.80664 4.0039,3.10058 c 0.73241,-1.28579 1.32648,-2.52277 1.78223,-3.71094 l 2.24609,0.8545 c -0.71616,1.7741 -1.48114,3.25521 -2.29492,4.44336 1.52993,1.46485 2.78318,2.79948 3.75977,4.0039 z m 16.333,0.0977 -1.78222,1.70898 c -0.89522,-1.20442 -2.11592,-2.52278 -3.66211,-3.95508 -1.30212,1.72527 -2.53096,3.12501 -3.68652,4.19922 l -1.75782,-1.68457 c 1.28578,-1.12304 2.53903,-2.54719 3.75977,-4.27246 -0.71618,-0.69986 -1.79853,-1.64387 -3.24707,-2.83203 l 1.53808,-1.61133 3.00293,2.51465 c 0.60218,-0.91145 1.18812,-2.01822 1.75782,-3.32031 l 2.19726,0.70801 c -0.60225,1.51368 -1.33467,2.94597 -2.19726,4.29687 1.48108,1.35092 2.84013,2.76693 4.07714,4.24805 z"
       style="font-size:50px;text-align:start;line-height:125%;writing-mode:lr-tb;text-anchor:start;fill:#cc002b;font-family:Microsoft JhengHei;-inkscape-font-specification:Microsoft JhengHei"
       id="path5695" />
    <path
       d="m 196.93523,298.64551 -1.78222,2.24609 c -5.37114,-3.43424 -9.66394,-7.40966 -12.87842,-11.92627 -3.21455,-4.51659 -5.61119,-10.11147 -7.18994,-16.78467 -2.01825,11.70249 -8.82977,21.22397 -20.43457,28.56446 l -1.70899,-2.27051 c 2.94596,-1.87174 5.78613,-4.11784 8.52051,-6.73828 2.73436,-2.62044 4.99673,-5.38329 6.78711,-8.28858 1.79034,-2.90525 3.17381,-6.89695 4.15039,-11.97509 l -18.55469,0 0,-2.58789 19.04297,0 c 0.52081,-4.10153 0.80564,-8.15426 0.85449,-12.15821 l 2.85645,0 c -0.16279,4.36202 -0.48017,8.41475 -0.95215,12.15821 l 20.4834,0 0,2.58789 -18.53027,0 c 1.79033,7.1452 4.25615,12.74008 7.39746,16.78466 3.14123,4.04461 7.12072,7.50733 11.93847,10.38819 z"
       style="font-size:50px;text-align:start;line-height:125%;writing-mode:lr-tb;text-anchor:start;fill:#cc002b;font-family:Microsoft JhengHei;-inkscape-font-specification:Microsoft JhengHei"
       id="path5697" />
    <path
       d="m 231.23699,264.58789 -1.63574,1.44043 c -1.25328,-1.20439 -2.6693,-2.35185 -4.24805,-3.44238 -1.6439,1.12308 -3.5482,2.18916 -5.71289,3.19824 l -1.09863,-2.00195 c 1.4811,-0.63473 3.13312,-1.53805 4.95605,-2.70996 -1.15562,-1.02536 -2.36004,-1.93681 -3.61328,-2.73438 l 1.66016,-1.46484 c 1.98565,1.4486 3.25518,2.40075 3.80859,2.85644 1.51365,-1.20439 2.67738,-2.31929 3.49121,-3.34472 l 1.9043,1.00097 c -0.6348,0.92778 -1.83922,2.19731 -3.61328,3.8086 0.60218,0.34183 1.96937,1.47301 4.10156,3.39355 z m 14.30664,20.99609 -2.6123,0 0,-6.29882 -36.13282,0 0,6.29882 -2.51464,0 0,-8.64257 2.6123,0 -0.19531,-18.01758 c 3.27147,-0.39059 6.38833,-1.18811 9.35058,-2.39258 l 1.14747,2.00195 c -2.27867,1.02543 -4.94793,1.80668 -8.00782,2.34375 l 0,3.56446 8.05664,0 0,2.29492 -8.00781,0 0.0488,3.85742 7.91016,0 0,2.34375 -7.8125,0 0.0488,4.00391 30.66407,0 0.0488,-4.00391 -7.91015,0 0,-2.34375 7.95898,0 0.0488,-3.85742 -8.00781,0 0,-2.29492 8.10547,0 0.0977,-3.61329 -8.64258,0 0,-2.29492 11.18165,0 -0.43946,18.40821 3.00293,0 z m -14.16015,-11.45019 -1.63575,1.61133 c -0.45575,-0.45571 -1.9206,-1.67641 -4.39453,-3.66211 -2.49025,1.70901 -4.50848,2.88902 -6.05469,3.54004 l -1.24511,-2.05078 c 0.89516,-0.35805 2.70994,-1.35089 5.44433,-2.97852 -0.56968,-0.52081 -1.27769,-1.05791 -2.12402,-1.61133 -0.84637,-0.55335 -1.45673,-0.96839 -1.83105,-1.24512 l 1.48925,-1.5625 c 2.42511,1.67647 3.86554,2.69372 4.32129,3.05176 1.85544,-1.44853 2.9378,-2.40882 3.24707,-2.88086 l 1.87989,1.29395 c -0.293,0.42321 -1.39164,1.45673 -3.2959,3.10058 0.71611,0.50459 2.11585,1.63577 4.19922,3.39356 z m 15.20996,18.18848 -20.41016,0 0,5.00488 c -3e-5,0.96028 -0.3052,1.70084 -0.91553,2.22168 -0.61037,0.52083 -1.33873,0.78125 -2.18506,0.78125 l -5.93261,0.0488 -0.85449,-2.49024 c 0.96026,0.0488 1.92055,0.0732 2.88085,0.0732 2.26235,0 3.58071,-0.0976 3.95508,-0.29296 0.37433,-0.19532 0.5615,-0.59408 0.56153,-1.19629 l 0,-4.15039 -20.50782,0 0,-2.34375 20.50782,0 0,-2.00196 c 3.15752,-1.10676 5.85934,-2.18911 8.10546,-3.24707 l -20.11718,0 0,-2.34375 25.46386,0 0,2.34375 c -3.40172,1.72527 -7.05569,3.32846 -10.96191,4.80957 l 0,0.43946 20.41016,0 z"
       style="font-size:50px;text-align:start;line-height:125%;writing-mode:lr-tb;text-anchor:start;fill:#cc002b;font-family:Microsoft JhengHei;-inkscape-font-specification:Microsoft JhengHei"
       id="path5699" />
    <path
       d="m 296.88641,275.62305 -2.14844,1.66015 c -1.12309,-1.62758 -2.52283,-3.31215 -4.19922,-5.05371 -10.30277,2.13219 -22.33889,3.45055 -36.1084,3.95508 l -0.73242,-2.39258 c 7.40559,-5.76169 12.57322,-11.45016 15.50293,-17.06543 l 2.68555,0.90332 c -2.7344,4.93168 -7.23472,10.16442 -13.50098,15.69824 10.95376,-0.37432 20.9391,-1.52178 29.95605,-3.44238 -2.01826,-2.22979 -4.70381,-4.74443 -8.05664,-7.54394 l 2.29492,-1.70899 c 5.64775,4.94795 10.41663,9.94469 14.30665,14.99024 z m -4.78516,25.12207 -2.75879,0 0,-3.10059 -28.85742,0 0,3.02734 -2.73438,0 0,-19.58007 34.35059,0 z m -2.75879,-5.76172 0,-11.20606 -28.85742,0 0,11.20606 z"
       style="font-size:50px;text-align:start;line-height:125%;writing-mode:lr-tb;text-anchor:start;fill:#cc002b;font-family:Microsoft JhengHei;-inkscape-font-specification:Microsoft JhengHei"
       id="path5701" />
    <path
       d="m 334.63055,262.19531 -11.03516,0 0,-2.09961 4.6875,0 c -0.16279,-0.76493 -0.56155,-1.68453 -1.19629,-2.75879 l 2.05078,-0.85449 c 0.53708,0.9766 1.07419,2.18103 1.61133,3.61328 l 3.88184,0 z m -11.13282,10.32715 -1.90429,0.70801 c -0.0814,-0.3906 -0.23603,-0.77309 -0.46387,-1.14746 -2.66929,0.60224 -5.37925,1.0661 -8.12988,1.3916 l -0.80567,-1.58691 c 2.58788,-2.57159 4.45148,-4.57354 5.59082,-6.00586 -2.14845,0.22789 -3.58074,0.3581 -4.29687,0.39062 l -0.70801,-1.78223 c 2.45767,-2.73433 4.32941,-5.4036 5.61523,-8.00781 l 2.05079,1.04981 c -0.97659,1.82295 -2.47398,3.97139 -4.49219,6.44531 1.416,-0.1139 2.62856,-0.27666 3.63769,-0.48828 0.3255,-0.47197 0.80565,-1.23695 1.44043,-2.29492 l 2.00196,1.0498 c -1.52997,2.63675 -3.82489,5.51761 -6.88477,8.64258 1.31834,-0.16273 2.71808,-0.41501 4.19922,-0.75684 -0.0814,-0.4557 -0.28485,-0.93584 -0.61035,-1.44043 l 1.90429,-0.75683 c 0.56964,0.94404 1.18813,2.47398 1.85547,4.58984 z m 22.80274,0.46387 -2.05078,0.70801 c -0.11398,-0.50454 -0.28488,-1.00909 -0.5127,-1.51368 -3.32035,0.60224 -6.11983,1.03356 -8.39844,1.29395 l -0.63476,-1.68457 c 1.7415,-1.49737 3.62138,-3.40166 5.63965,-5.71289 l -4.90723,0.31738 -0.53711,-1.5625 c 3.07613,-3.48303 5.11064,-6.20113 6.10352,-8.1543 l 2.19726,0.90332 c -1.20447,2.05082 -2.85648,4.23181 -4.95605,6.54297 1.66011,-0.11389 3.01102,-0.29293 4.05273,-0.53711 0.78121,-1.15556 1.31018,-1.99377 1.58692,-2.51464 l 2.05078,1.2207 c -1.33468,2.22985 -3.70284,5.09443 -7.1045,8.59375 0.96025,-0.0325 2.29489,-0.25225 4.00391,-0.65918 -0.14653,-0.4557 -0.37439,-0.91957 -0.68359,-1.3916 l 2.05078,-0.75684 c 0.83003,1.67646 1.5299,3.3122 2.09961,4.90723 z m -33.76465,-10.0586 -1.68457,1.9043 c -1.72527,-1.93681 -3.9795,-3.93876 -6.7627,-6.00586 l 1.66016,-1.9043 c 2.11588,1.46489 4.37825,3.46684 6.78711,6.00586 z m 20.70312,3.34473 -8.49609,0 0,-2.02637 8.49609,0 z m 0,4.15039 -8.49609,0 0,-2.05078 8.49609,0 z m -21.80175,4.56543 -1.53809,1.95313 c -1.56251,-1.80662 -3.80046,-3.7923 -6.71387,-5.95704 l 1.66016,-2.00195 c 2.76692,2.16474 4.96418,4.16669 6.5918,6.00586 z m 21.89941,4.90723 -8.59375,0 0,-7.47071 8.59375,0 z m -2.05078,-2.09961 0,-3.27149 -4.3457,0 0,3.27149 z m -8.34961,1.34277 -1.95312,0.53711 c -0.24417,-1.61131 -0.62665,-3.22263 -1.14747,-4.83398 l 1.9043,-0.61035 c 0.53709,1.46486 0.93585,3.1006 1.19629,4.90722 z m -7.73926,-4.0039 c -0.47202,1.95314 -1.04168,3.75164 -1.70898,5.3955 l -2.05078,-0.708 c 0.79751,-1.77407 1.38345,-3.54002 1.75781,-5.29786 z m 22.3877,0 c -0.0814,1.59507 -0.44763,3.5075 -1.09864,5.7373 l -2.05078,-0.48828 c 0.5208,-1.54621 0.91956,-3.42609 1.19629,-5.63965 z m 8.95996,4.76074 -1.95313,0.53711 c -0.78129,-2.44139 -1.3835,-4.14223 -1.80664,-5.10254 l 1.9043,-0.53711 c 0.76493,1.39976 1.38342,3.1006 1.85547,5.10254 z m -4.49219,0.29297 -2.17285,0.39062 c 0.0976,-1.66014 -0.11397,-3.44236 -0.63477,-5.34668 l 1.95313,-0.3418 c 0.47196,1.77411 0.75679,3.54006 0.85449,5.29786 z m -23.16894,0 -1.87989,0.29297 c -0.17905,-2.13215 -0.4476,-3.88182 -0.80566,-5.24903 l 2.00195,-0.29297 c 0.45571,2.62047 0.68358,4.37014 0.6836,5.24903 z m 25.65918,12.35351 -0.65918,4.63867 c -0.13026,0.94401 -0.54936,1.76188 -1.25733,2.45362 -0.70805,0.69173 -1.65613,1.03759 -2.84424,1.03759 l -11.18164,0 -0.95215,-2.34375 12.08497,0 c 0.92769,0 1.48107,-0.51269 1.66015,-1.53808 l 0.3418,-2.09961 -28.2959,0 2.66113,-7.29981 24.14551,0 0,-2.90527 -26.70898,0 0,-2.09961 29.24804,0 0,7.15332 -24.68261,0 -1.09864,3.00293 z m -32.73926,-7.91015 c -1.88803,5.76172 -4.12599,11.07584 -6.71387,15.94238 l -2.00195,-1.48926 c 2.45767,-4.65494 4.67935,-9.95279 6.66504,-15.89355 z"
       style="font-size:50px;text-align:start;line-height:125%;writing-mode:lr-tb;text-anchor:start;fill:#cc002b;font-family:Microsoft JhengHei;-inkscape-font-specification:Microsoft JhengHei"
       id="path5703" />
    <path
       d="m 394.49383,296.83887 c -5e-5,1.64388 -0.57785,2.70182 -1.7334,3.17383 -0.92778,0.26041 -2.12,0.41096 -3.57666,0.45166 -1.45674,0.0407 -3.37325,0.061 -5.74951,0.061 l -1.04981,-2.63672 c 0.87888,0.0651 3.61325,0.0977 8.20313,0.0977 0.89514,0 1.34273,-0.43132 1.34277,-1.29395 l 0,-36.1084 -33.64258,0 0,40.03907 -2.53906,0 0,-42.5293 38.74512,0 z m -6.7627,-27.56348 -25.19531,0 0,-2.53906 25.19531,0 z m -2.83203,21.11816 -19.55566,0 0,-14.81933 19.55566,0 z m -2.70996,-2.66113 0,-9.59472 -14.13574,0 0,9.59472 z"
       style="font-size:50px;text-align:start;line-height:125%;writing-mode:lr-tb;text-anchor:start;fill:#cc002b;font-family:Microsoft JhengHei;-inkscape-font-specification:Microsoft JhengHei"
       id="path5705" />
    <path
       d="m 431.23699,264.58789 -1.63574,1.44043 c -1.25328,-1.20439 -2.6693,-2.35185 -4.24805,-3.44238 -1.6439,1.12308 -3.5482,2.18916 -5.71289,3.19824 l -1.09863,-2.00195 c 1.4811,-0.63473 3.13312,-1.53805 4.95605,-2.70996 -1.15562,-1.02536 -2.36004,-1.93681 -3.61328,-2.73438 l 1.66016,-1.46484 c 1.98565,1.4486 3.25518,2.40075 3.80859,2.85644 1.51365,-1.20439 2.67738,-2.31929 3.49121,-3.34472 l 1.9043,1.00097 c -0.6348,0.92778 -1.83922,2.19731 -3.61328,3.8086 0.60218,0.34183 1.96937,1.47301 4.10156,3.39355 z m 14.30664,20.99609 -2.6123,0 0,-6.29882 -36.13282,0 0,6.29882 -2.51464,0 0,-8.64257 2.6123,0 -0.19531,-18.01758 c 3.27147,-0.39059 6.38833,-1.18811 9.35058,-2.39258 l 1.14747,2.00195 c -2.27867,1.02543 -4.94793,1.80668 -8.00782,2.34375 l 0,3.56446 8.05664,0 0,2.29492 -8.00781,0 0.0488,3.85742 7.91016,0 0,2.34375 -7.8125,0 0.0488,4.00391 30.66407,0 0.0488,-4.00391 -7.91015,0 0,-2.34375 7.95898,0 0.0488,-3.85742 -8.00781,0 0,-2.29492 8.10547,0 0.0976,-3.61329 -8.64258,0 0,-2.29492 11.18165,0 -0.43946,18.40821 3.00293,0 z m -14.16015,-11.45019 -1.63575,1.61133 c -0.45575,-0.45571 -1.9206,-1.67641 -4.39453,-3.66211 -2.49025,1.70901 -4.50848,2.88902 -6.05469,3.54004 l -1.24511,-2.05078 c 0.89516,-0.35805 2.70994,-1.35089 5.44433,-2.97852 -0.56968,-0.52081 -1.27769,-1.05791 -2.12402,-1.61133 -0.84637,-0.55335 -1.45673,-0.96839 -1.83105,-1.24512 l 1.48925,-1.5625 c 2.42511,1.67647 3.86554,2.69372 4.32129,3.05176 1.85544,-1.44853 2.9378,-2.40882 3.24707,-2.88086 l 1.87989,1.29395 c -0.293,0.42321 -1.39164,1.45673 -3.2959,3.10058 0.71611,0.50459 2.11585,1.63577 4.19922,3.39356 z m 15.20996,18.18848 -20.41016,0 0,5.00488 c -3e-5,0.96028 -0.3052,1.70084 -0.91553,2.22168 -0.61037,0.52083 -1.33873,0.78125 -2.18506,0.78125 l -5.93261,0.0488 -0.85449,-2.49024 c 0.96026,0.0488 1.92055,0.0732 2.88085,0.0732 2.26235,0 3.58071,-0.0976 3.95508,-0.29296 0.37433,-0.19532 0.5615,-0.59408 0.56153,-1.19629 l 0,-4.15039 -20.50782,0 0,-2.34375 20.50782,0 0,-2.00196 c 3.15752,-1.10676 5.85934,-2.18911 8.10546,-3.24707 l -20.11718,0 0,-2.34375 25.46386,0 0,2.34375 c -3.40172,1.72527 -7.05569,3.32846 -10.96191,4.80957 l 0,0.43946 20.41016,0 z"
       style="font-size:50px;text-align:start;line-height:125%;writing-mode:lr-tb;text-anchor:start;fill:#cc002b;font-family:Microsoft JhengHei;-inkscape-font-specification:Microsoft JhengHei"
       id="path5707" />
    <path
       d="m 497.13055,266.6875 -1.09864,2.39258 c -5.40368,-1.30205 -9.74938,-2.78317 -13.03711,-4.44336 l 0,1.95312 -16.16211,0 0,-1.90429 c -3.53191,1.83922 -7.73112,3.45869 -12.59765,4.8584 l -1.34278,-2.27051 c 8.95182,-2.31117 16.13768,-5.89189 21.55762,-10.74219 l 2.88086,0.85449 c -0.3581,0.35812 -0.61851,0.61039 -0.78125,0.75684 5.24085,3.93884 12.1012,6.78714 20.58106,8.54492 z m -15.33204,-2.51465 c -2.53909,-1.31832 -4.92352,-2.79944 -7.15332,-4.44336 -2.18101,1.67647 -4.41896,3.15759 -6.71386,4.44336 z m 10.4004,17.7002 -34.7168,0 0,-12.28028 34.7168,0 z m -2.56348,-2.39258 0,-7.49512 -13.45215,0 0,7.49512 z m -3.78418,-5.59082 c -1.15563,1.70901 -2.40889,3.17385 -3.75977,4.39453 l -1.95312,-1.3916 c 1.35088,-1.05792 2.5553,-2.34373 3.61328,-3.85742 z m -12.30469,5.59082 0,-7.49512 -13.50097,0 0,7.49512 z m -4.15039,-2.53906 -1.85547,1.3916 c -1.10678,-1.4811 -2.36004,-2.89711 -3.75976,-4.24805 l 1.90429,-1.24512 c 1.38345,1.1068 2.62043,2.47398 3.71094,4.10157 z m 20.60547,23.63281 -2.51465,0 0,-2.09961 -25.09765,0 0,2.09961 -2.63672,0 0,-15.7959 30.24902,0 z m -2.51465,-10.13184 0,-3.24707 -25.09765,0 0,3.24707 z m 0,5.63965 0,-3.34473 -25.09765,0 0,3.34473 z"
       style="font-size:50px;text-align:start;line-height:125%;writing-mode:lr-tb;text-anchor:start;fill:#cc002b;font-family:Microsoft JhengHei;-inkscape-font-specification:Microsoft JhengHei"
       id="path5709" />
  </g>
</svg>
